<svg width="45" height="45" viewBox="0 0 45 45" fill="none" xmlns="http://www.w3.org/2000/svg">
<g id="Component 27">
<path id="Ellipse 25" d="M0.923292 22.5C0.923291 10.269 10.5155 0.375003 22.3225 0.375002C34.1294 0.375001 43.7217 10.269 43.7217 22.5C43.7217 34.731 34.1294 44.625 22.3225 44.625C10.5155 44.625 0.923293 34.731 0.923292 22.5Z" stroke="#00008D" stroke-width="0.75"/>
<path id="Vector" d="M15.2452 22.4992C15.2452 22.2755 15.3312 22.0609 15.4844 21.9026C15.6375 21.7444 15.8452 21.6555 16.0618 21.6555L26.0643 21.6555L22.5586 18.0337C22.4052 17.8752 22.3191 17.6602 22.3191 17.436C22.3191 17.2119 22.4052 16.9969 22.5586 16.8384C22.712 16.6799 22.9201 16.5908 23.137 16.5908C23.3539 16.5908 23.562 16.6799 23.7154 16.8384L28.6146 21.9009C28.6907 21.9793 28.7511 22.0724 28.7923 22.175C28.8335 22.2775 28.8547 22.3875 28.8547 22.4985C28.8547 22.6096 28.8335 22.7195 28.7923 22.8221C28.7511 22.9247 28.6907 23.0178 28.6146 23.0962L23.7154 28.1587C23.6394 28.2372 23.5493 28.2994 23.45 28.3419C23.3508 28.3844 23.2444 28.4063 23.137 28.4063C23.0296 28.4063 22.9232 28.3844 22.824 28.3419C22.7248 28.2994 22.6346 28.2372 22.5586 28.1587C22.4827 28.0802 22.4224 27.987 22.3813 27.8845C22.3402 27.7819 22.3191 27.672 22.3191 27.561C22.3191 27.45 22.3402 27.3401 22.3813 27.2376C22.4224 27.135 22.4827 27.0419 22.5586 26.9634L26.0643 23.343L16.0618 23.343C15.8452 23.343 15.6375 23.2541 15.4844 23.0959C15.3312 22.9376 15.2452 22.723 15.2452 22.4992Z" fill="#00008D"/>
</g>
</svg>
