<svg width="44" height="45" viewBox="0 0 44 45" fill="none" xmlns="http://www.w3.org/2000/svg">
<g id="Component 26">
<path id="Ellipse 25" d="M43.1734 22.5C43.1734 34.731 33.5811 44.625 21.7742 44.625C9.96724 44.625 0.375 34.731 0.375 22.5C0.375 10.269 9.96724 0.375 21.7742 0.375C33.5811 0.375 43.1734 10.269 43.1734 22.5Z" stroke="#00008D" stroke-width="0.75"/>
<path id="Vector" d="M28.8515 22.5008C28.8515 22.7245 28.7654 22.9391 28.6123 23.0974C28.4592 23.2556 28.2515 23.3445 28.0349 23.3445H18.0324L21.538 26.9663C21.6914 27.1248 21.7776 27.3398 21.7776 27.564C21.7776 27.7881 21.6914 28.0031 21.538 28.1616C21.3847 28.3201 21.1766 28.4092 20.9597 28.4092C20.7427 28.4092 20.5347 28.3201 20.3813 28.1616L15.4821 23.0991C15.406 23.0207 15.3456 22.9276 15.3044 22.825C15.2632 22.7225 15.2419 22.6125 15.2419 22.5015C15.2419 22.3904 15.2632 22.2805 15.3044 22.1779C15.3456 22.0753 15.406 21.9822 15.4821 21.9038L20.3813 16.8413C20.4572 16.7628 20.5474 16.7006 20.6467 16.6581C20.7459 16.6156 20.8523 16.5938 20.9597 16.5938C21.0671 16.5938 21.1734 16.6156 21.2727 16.6581C21.3719 16.7006 21.4621 16.7628 21.538 16.8413C21.614 16.9198 21.6743 17.013 21.7154 17.1155C21.7565 17.2181 21.7776 17.328 21.7776 17.439C21.7776 17.55 21.7565 17.6599 21.7154 17.7624C21.6743 17.865 21.614 17.9581 21.538 18.0366L18.0324 21.657H28.0349C28.2515 21.657 28.4592 21.7459 28.6123 21.9041C28.7654 22.0624 28.8515 22.277 28.8515 22.5008Z" fill="#00008D"/>
</g>
</svg>
