<svg width="45" height="45" viewBox="0 0 45 45" fill="none" xmlns="http://www.w3.org/2000/svg">
<g id="Component 27">
<path id="Ellipse 25" d="M0.923414 22.5C0.923413 10.269 10.5157 0.375003 22.3226 0.375002C34.1296 0.375001 43.7218 10.269 43.7218 22.5C43.7218 34.731 34.1296 44.625 22.3226 44.625C10.5157 44.625 0.923415 34.731 0.923414 22.5Z" stroke="#00008D" stroke-width="0.75"/>
<path id="Vector" d="M15.2453 22.4997C15.2453 22.276 15.3314 22.0613 15.4845 21.9031C15.6376 21.7449 15.8453 21.656 16.0619 21.656L26.0644 21.656L22.5588 18.0342C22.4054 17.8757 22.3192 17.6607 22.3192 17.4365C22.3192 17.2124 22.4054 16.9974 22.5588 16.8389C22.7121 16.6804 22.9202 16.5913 23.1371 16.5913C23.3541 16.5913 23.5621 16.6804 23.7155 16.8389L28.6147 21.9014C28.6908 21.9798 28.7512 22.0729 28.7924 22.1755C28.8336 22.278 28.8549 22.388 28.8549 22.499C28.8549 22.6101 28.8336 22.72 28.7924 22.8226C28.7512 22.9251 28.6908 23.0183 28.6147 23.0967L23.7155 28.1592C23.6396 28.2377 23.5494 28.2999 23.4501 28.3424C23.3509 28.3849 23.2445 28.4067 23.1371 28.4067C23.0297 28.4067 22.9234 28.3849 22.8241 28.3424C22.7249 28.2999 22.6347 28.2377 22.5588 28.1592C22.4828 28.0807 22.4225 27.9875 22.3814 27.885C22.3403 27.7824 22.3192 27.6725 22.3192 27.5615C22.3192 27.4505 22.3403 27.3406 22.3814 27.2381C22.4225 27.1355 22.4828 27.0424 22.5588 26.9639L26.0644 23.3435L16.0619 23.3435C15.8453 23.3435 15.6376 23.2546 15.4845 23.0963C15.3314 22.9381 15.2453 22.7235 15.2453 22.4997Z" fill="#00008D"/>
</g>
</svg>
