<svg width="17" height="16" viewBox="0 0 17 16" fill="none" xmlns="http://www.w3.org/2000/svg">
<g id="devicon:google" clip-path="url(#clip0_429_4957)">
<path id="Vector" d="M6.07386 0.52625C4.47522 1.08084 3.09654 2.13346 2.14035 3.5295C1.18416 4.92555 0.700854 6.59143 0.761418 8.28246C0.821982 9.97348 1.42323 11.6005 2.47684 12.9246C3.53045 14.2487 4.98089 15.1999 6.61511 15.6388C7.94002 15.9806 9.32813 15.9956 10.6601 15.6825C11.8668 15.4115 12.9823 14.8317 13.8976 14C14.8502 13.1079 15.5417 11.9731 15.8976 10.7175C16.2845 9.35209 16.3534 7.91617 16.0989 6.52H8.65886V9.60625H12.9676C12.8815 10.0985 12.697 10.5683 12.4251 10.9875C12.1531 11.4068 11.7994 11.7669 11.3851 12.0463C10.859 12.3943 10.2659 12.6285 9.64387 12.7338C9.02005 12.8497 8.38019 12.8497 7.75636 12.7338C7.1241 12.603 6.52599 12.3421 6.00011 11.9675C5.1553 11.3695 4.52096 10.5199 4.18762 9.54C3.84863 8.54174 3.84863 7.45951 4.18762 6.46125C4.4249 5.76152 4.81716 5.12442 5.33511 4.5975C5.92785 3.98343 6.67828 3.5445 7.50406 3.32884C8.32984 3.11319 9.19906 3.12916 10.0164 3.375C10.6548 3.57099 11.2387 3.91342 11.7214 4.375C12.2072 3.89167 12.6922 3.40708 13.1764 2.92125C13.4264 2.66 13.6989 2.41125 13.9451 2.14375C13.2083 1.45809 12.3435 0.924571 11.4001 0.57375C9.68225 -0.0500132 7.80259 -0.0667762 6.07386 0.52625Z" fill="white"/>
<path id="Vector_2" d="M6.07372 0.52625C7.8023 -0.0671783 9.68196 -0.0508565 11.4 0.5725C12.3435 0.925705 13.208 1.4618 13.9437 2.15C13.6937 2.4175 13.43 2.6675 13.175 2.9275C12.69 3.41167 12.2054 3.89417 11.7212 4.375C11.2385 3.91342 10.6547 3.57099 10.0162 3.375C9.19919 3.1283 8.32999 3.11141 7.50399 3.32618C6.678 3.54095 5.92711 3.97908 5.33372 4.5925C4.81576 5.11942 4.4235 5.75652 4.18622 6.45625L1.59497 4.45C2.52248 2.6107 4.12841 1.20378 6.07372 0.52625Z" fill="#E33629"/>
<path id="Vector_3" d="M0.907438 6.4375C1.04671 5.74724 1.27794 5.07878 1.59494 4.45L4.18619 6.46125C3.84721 7.45951 3.84721 8.54174 4.18619 9.54C3.32285 10.2067 2.4591 10.8767 1.59494 11.55C0.801376 9.9704 0.559354 8.17063 0.907438 6.4375Z" fill="#F8BD00"/>
<path id="Vector_4" d="M8.65876 6.51875H16.0988C16.3533 7.91492 16.2844 9.35084 15.8975 10.7162C15.5416 11.9718 14.8501 13.1067 13.8975 13.9987C13.0613 13.3462 12.2213 12.6987 11.385 12.0462C11.7996 11.7666 12.1535 11.4061 12.4254 10.9864C12.6973 10.5667 12.8817 10.0964 12.9675 9.60375H8.65876C8.65751 8.57625 8.65876 7.5475 8.65876 6.51875Z" fill="#587DBD"/>
<path id="Vector_5" d="M1.59375 11.55C2.45792 10.8833 3.32167 10.2133 4.185 9.54C4.51901 10.5202 5.15426 11.3699 6 11.9675C6.52751 12.3403 7.12691 12.5992 7.76 12.7275C8.38382 12.8435 9.02368 12.8435 9.6475 12.7275C10.2695 12.6222 10.8626 12.388 11.3888 12.04C12.225 12.6925 13.065 13.34 13.9012 13.9925C12.9861 14.8247 11.8705 15.4049 10.6637 15.6763C9.33176 15.9894 7.94365 15.9744 6.61875 15.6325C5.57088 15.3527 4.59209 14.8595 3.74375 14.1838C2.84583 13.4709 2.11244 12.5725 1.59375 11.55Z" fill="#319F43"/>
</g>
<defs>
<clipPath id="clip0_429_4957">
<rect width="16" height="16" fill="white" transform="translate(0.5)"/>
</clipPath>
</defs>
</svg>
