<svg width="17" height="16" viewBox="0 0 17 16" fill="none" xmlns="http://www.w3.org/2000/svg">
<g id="devicon:linkedin" clip-path="url(#clip0_429_4952)">
<path id="Vector" d="M15 0.375001H2C1.70504 0.371999 1.42093 0.486131 1.21002 0.692354C0.999114 0.898577 0.878626 1.18005 0.875 1.475V14.5275C0.879282 14.822 1.00006 15.1028 1.2109 15.3085C1.42173 15.5142 1.70547 15.628 2 15.625H15C15.295 15.6273 15.5789 15.5128 15.7897 15.3065C16.0005 15.1001 16.121 14.8187 16.125 14.5238V1.47125C16.1197 1.17716 15.9986 0.897034 15.788 0.691758C15.5773 0.486481 15.2941 0.372648 15 0.375001Z" fill="#0076B2"/>
<path id="Vector_2" d="M3.13239 6.09125H5.39614V13.375H3.13239V6.09125ZM4.26489 2.46625C4.52453 2.46625 4.77834 2.54326 4.99421 2.68753C5.21008 2.83181 5.3783 3.03687 5.4776 3.27677C5.57691 3.51667 5.60283 3.78063 5.55208 4.03527C5.50134 4.2899 5.37621 4.52376 5.19253 4.70727C5.00885 4.89078 4.77486 5.01568 4.52018 5.06618C4.2655 5.11668 4.00156 5.09051 3.76175 4.99098C3.52195 4.89145 3.31705 4.72303 3.17298 4.50703C3.02891 4.29102 2.95215 4.03714 2.95239 3.7775C2.95272 3.42962 3.09115 3.0961 3.33726 2.85023C3.58336 2.60436 3.91701 2.46625 4.26489 2.46625ZM6.81614 6.09125H8.98614V7.09125H9.01614C9.31864 6.51875 10.0561 5.915 11.1574 5.915C13.4499 5.91 13.8749 7.41875 13.8749 9.375V13.375H11.6111V9.83125C11.6111 8.9875 11.5961 7.90125 10.4349 7.90125C9.27364 7.90125 9.07614 8.82125 9.07614 9.77625V13.375H6.81614V6.09125Z" fill="white"/>
</g>
<defs>
<clipPath id="clip0_429_4952">
<rect width="16" height="16" fill="white" transform="translate(0.5)"/>
</clipPath>
</defs>
</svg>
