<svg width="497" height="141" viewBox="0 0 497 141" fill="none" xmlns="http://www.w3.org/2000/svg">
<path d="M5.8628 -263.468C0.275703 -266.877 -1.51132 -274.187 2.13985 -279.619C26.0589 -315.205 58.1456 -344.633 95.7871 -365.402C136.892 -388.083 183.201 -399.653 230.143 -398.972C277.085 -398.29 323.038 -385.381 363.468 -361.517C403.898 -337.654 437.406 -303.661 460.687 -262.893C483.968 -222.125 496.217 -175.991 496.225 -129.044C496.232 -82.0967 483.999 -35.959 460.731 4.81653C437.463 45.592 403.965 79.5959 363.543 103.473C326.528 125.337 284.877 138.018 242.073 140.534C235.539 140.919 230.152 135.665 230.055 129.121C229.958 122.576 235.188 117.222 241.72 116.81C280.401 114.372 318.022 102.833 351.489 83.0649C388.362 61.2842 418.919 30.2654 440.145 -6.93063C461.37 -44.1266 472.529 -86.2141 472.522 -129.04C472.516 -171.866 461.342 -213.95 440.105 -251.139C418.868 -288.328 388.301 -319.337 351.42 -341.106C314.54 -362.874 272.62 -374.65 229.799 -375.272C186.978 -375.893 144.734 -365.339 107.238 -344.65C73.2049 -325.872 44.1499 -299.334 22.3933 -267.259C18.7192 -261.842 11.4499 -260.058 5.8628 -263.468Z" fill="#00008D"/>
</svg>
