<svg width="136" height="150" viewBox="0 0 136 150" fill="none" xmlns="http://www.w3.org/2000/svg">
<path d="M-278.54 148.072C-284.309 144.981 -286.503 137.783 -283.161 132.155C-263.686 99.3543 -237.456 71.0116 -206.164 49.0378C-171.635 24.7911 -131.904 8.97377 -90.1583 2.85466C-48.4126 -3.26444 -5.81378 0.484968 34.2212 13.8021C70.5032 25.8709 103.764 45.4933 131.834 71.3251C136.65 75.7572 136.615 83.2819 131.976 87.8989C127.336 92.516 119.851 92.4746 115.017 88.0628C89.573 64.8455 59.507 47.1922 26.74 36.2926C-9.78049 24.1445 -48.6397 20.7243 -86.7207 26.3062C-124.802 31.8881 -161.045 46.3169 -192.542 68.4351C-220.803 88.2801 -244.538 113.82 -262.248 143.362C-265.613 148.976 -272.771 151.164 -278.54 148.072Z" fill="#FFCF00"/>
</svg>
