<svg width="189" height="234" viewBox="0 0 189 234" fill="none" xmlns="http://www.w3.org/2000/svg">
<path d="M6.16895 136.142C0.581856 132.732 -1.20517 125.423 2.44601 119.991C26.365 84.4044 58.4517 54.9762 96.0932 34.2071C137.198 11.5268 183.507 -0.0435112 230.449 0.637809C277.391 1.31913 323.345 14.2286 363.774 38.0922C404.204 61.9558 437.712 95.9488 460.993 136.717C484.274 177.485 496.523 223.618 496.531 270.566C496.538 317.513 484.305 363.65 461.037 404.426C437.769 445.201 404.272 479.205 363.85 503.082C326.834 524.947 285.183 537.627 242.379 540.144C235.845 540.528 230.458 535.274 230.361 528.73C230.264 522.185 235.494 516.831 242.026 516.419C280.708 513.981 318.328 502.443 351.795 482.674C388.668 460.894 419.225 429.875 440.451 392.679C461.676 355.483 472.836 313.395 472.829 270.569C472.822 227.744 461.648 185.66 440.411 148.471C419.174 111.282 388.607 80.2726 351.726 58.5039C314.846 36.7351 272.926 24.9589 230.105 24.3374C187.284 23.7159 145.041 34.2706 107.544 54.9598C73.511 73.7377 44.456 100.275 22.6994 132.351C19.0254 137.767 11.7561 139.551 6.16895 136.142Z" fill="#FF1D35"/>
</svg>
