<svg width="24" height="25" viewBox="0 0 24 25" fill="none" xmlns="http://www.w3.org/2000/svg">
<g id="facebook black.1">
<path id="Facebook" d="M12.6144 21.6055H3.99346C3.44463 21.6055 3 21.1606 3 20.6119V4.59892C3 4.05016 3.4447 3.60547 3.99346 3.60547H20.0066C20.5552 3.60547 21 4.05016 21 4.59892V20.6119C21 21.1606 20.5552 21.6055 20.0066 21.6055H15.4197V14.6349H17.7594L18.1098 11.9183H15.4197V10.184C15.4197 9.39745 15.6381 8.86147 16.766 8.86147L18.2045 8.86084V6.43113C17.9557 6.39802 17.1018 6.32406 16.1083 6.32406C14.0343 6.32406 12.6144 7.59004 12.6144 9.91492V11.9183H10.2687V14.6349H12.6144V21.6055Z" fill="white"/>
</g>
</svg>
