<svg width="227" height="47" viewBox="0 0 227 47" fill="none" xmlns="http://www.w3.org/2000/svg">
<g id="Group">
<path id="Vector" d="M17.0173 32.8676C13.8802 32.8676 11.0861 32.1518 8.6349 30.7202C6.18371 29.2886 4.26188 27.3483 2.87172 24.8972C1.47926 22.446 0.78418 19.6725 0.78418 16.5746C0.78418 13.4767 1.47005 10.5744 2.8418 8.10476C4.21355 5.63516 6.09625 3.70412 8.4876 2.31166C10.8789 0.919201 13.6247 0.224121 16.7227 0.224121C19.0358 0.224121 21.1532 0.666026 23.0751 1.54753C24.9969 2.42904 26.7208 3.75246 28.2513 5.51778C28.7991 6.14611 28.9948 6.79286 28.8382 7.45802C28.6817 8.12548 28.2513 8.71238 27.5448 9.22333C26.9947 9.6146 26.3871 9.74349 25.7219 9.6054C25.0544 9.4696 24.4468 9.12667 23.899 8.57659C21.9772 6.53738 19.5859 5.51778 16.7227 5.51778C14.7226 5.51778 12.9573 5.97809 11.429 6.90103C9.90077 7.82167 8.70395 9.10595 7.84085 10.7539C6.97776 12.3995 6.54736 14.3421 6.54736 16.5769C6.54736 18.6944 6.98926 20.5771 7.87077 22.2227C8.75228 23.8683 9.97903 25.1733 11.5464 26.1331C13.1138 27.0952 14.9366 27.5739 17.0173 27.5739C18.389 27.5739 19.5951 27.4082 20.6354 27.0745C21.6734 26.743 22.6263 26.2229 23.4894 25.5163C24.1154 25.0076 24.7621 24.7222 25.4296 24.6624C26.0948 24.6026 26.684 24.7913 27.1949 25.2217C27.8624 25.7718 28.2329 26.3886 28.3135 27.0745C28.3917 27.7603 28.157 28.3795 27.6069 28.9272C24.7828 31.5557 21.2545 32.8676 17.0196 32.8676H17.0173Z" fill="white"/>
<path id="Vector_2" d="M48.8968 32.8674C46.0337 32.8674 43.4651 32.1516 41.1911 30.72C38.9171 29.2884 37.1219 27.3482 35.81 24.897C34.4958 22.4458 33.8398 19.6724 33.8398 16.5745C33.8398 13.4765 34.5556 10.6916 35.9872 8.222C37.4188 5.7524 39.3591 3.80065 41.8102 2.36906C44.2591 0.937474 47.0164 0.22168 50.0753 0.22168C53.1341 0.22168 55.8776 0.937474 58.3103 2.36906C60.7408 3.80065 62.6718 5.75009 64.1034 8.222C65.535 10.6916 66.2508 13.4765 66.2508 16.5745H63.9561C63.9561 19.6724 63.3002 22.4458 61.986 24.897C60.6718 27.3482 58.8788 29.2884 56.6049 30.72C54.3309 32.1516 51.7623 32.8674 48.8991 32.8674H48.8968ZM50.073 27.5738C52.073 27.5738 53.8568 27.095 55.4265 26.133C56.9938 25.1732 58.2298 23.859 59.132 22.1926C60.0342 20.5263 60.4853 18.6551 60.4853 16.5768C60.4853 14.4984 60.0342 12.5674 59.132 10.901C58.2298 9.2347 56.9938 7.92049 55.4265 6.96073C53.8568 6.00097 52.073 5.51994 50.073 5.51994C48.0729 5.51994 46.3375 6.00097 44.7494 6.96073C43.1613 7.92279 41.9069 9.2347 40.984 10.901C40.0633 12.5674 39.603 14.4593 39.603 16.5768C39.603 18.6942 40.0633 20.5286 40.984 22.1926C41.9046 23.859 43.1613 25.1732 44.7494 26.133C46.3375 27.095 48.112 27.5738 50.073 27.5738ZM63.2472 32.6902C62.3842 32.6902 61.6684 32.4071 61.0999 31.8386C60.5314 31.2701 60.246 30.5543 60.246 29.6912V20.692L61.3645 14.457L66.2462 16.5745V29.6912C66.2462 30.5543 65.9608 31.2701 65.3946 31.8386C64.8261 32.4071 64.1103 32.6902 63.2472 32.6902Z" fill="white"/>
<path id="Vector_3" d="M75.8948 32.6927C75.0317 32.6927 74.3159 32.4096 73.7474 31.8411C73.179 31.2726 72.8936 30.5568 72.8936 29.6937V3.51776C72.8936 2.61553 73.1767 1.89053 73.7474 1.34276C74.3159 0.794977 75.0317 0.518786 75.8948 0.518786C76.7579 0.518786 77.522 0.794977 78.0721 1.34276C78.6199 1.89284 78.8961 2.61783 78.8961 3.51776V29.6937C78.8961 30.5568 78.6222 31.2726 78.0721 31.8411C77.522 32.4096 76.7971 32.6927 75.8948 32.6927ZM95.5412 32.6927C94.6781 32.6927 93.9623 32.4096 93.3938 31.8411C92.8253 31.2726 92.5422 30.5568 92.5422 29.6937V12.8714C92.5422 10.4018 91.9346 8.56974 90.7194 7.37292C89.5041 6.17609 87.916 5.57998 85.9551 5.57998C83.9941 5.57998 82.2288 6.28657 80.8962 7.69744C79.5636 9.10831 78.8961 10.9128 78.8961 13.1085H75.1905C75.1905 10.5606 75.6992 8.31427 76.7211 6.37403C77.7407 4.43379 79.1516 2.91474 80.956 1.81458C82.7605 0.716722 84.8181 0.168945 87.1312 0.168945C89.4443 0.168945 91.3454 0.659184 93.0716 1.63966C94.7955 2.62014 96.1396 4.06093 97.1017 5.96204C98.0614 7.86316 98.5425 10.167 98.5425 12.8737V29.696C98.5425 30.5591 98.2686 31.2749 97.7185 31.8434C97.1684 32.4119 96.4434 32.695 95.5412 32.695V32.6927ZM115.128 32.6927C114.265 32.6927 113.549 32.4096 112.98 31.8411C112.412 31.2726 112.126 30.5568 112.126 29.6937V12.8714C112.126 10.4018 111.519 8.56974 110.304 7.37292C109.088 6.17609 107.5 5.57998 105.539 5.57998C103.578 5.57998 101.825 6.28657 100.51 7.69744C99.1961 9.10831 98.5402 10.9128 98.5402 13.1085H93.6585C93.6585 10.5606 94.2063 8.31427 95.3064 6.37403C96.4043 4.43379 97.944 2.91474 99.9234 1.81458C101.903 0.716722 104.168 0.168945 106.718 0.168945C108.953 0.168945 110.932 0.659184 112.658 1.63966C114.384 2.62014 115.726 4.06093 116.688 5.96204C117.648 7.86316 118.129 10.167 118.129 12.8737V29.696C118.129 30.5591 117.855 31.2749 117.305 31.8434C116.755 32.4119 116.03 32.695 115.128 32.695V32.6927Z" fill="white"/>
<path id="Vector_4" d="M128.774 46.3963C127.911 46.3963 127.195 46.1109 126.626 45.5447C126.058 44.9762 125.772 44.2604 125.772 43.3973V16.5769C125.812 13.479 126.537 10.694 127.95 8.22444C129.361 5.75484 131.282 3.80309 133.713 2.3715C136.143 0.939916 138.889 0.224121 141.948 0.224121C145.007 0.224121 147.81 0.939916 150.241 2.3715C152.671 3.80309 154.602 5.75254 156.034 8.22444C157.465 10.694 158.181 13.479 158.181 16.5769C158.181 19.6748 157.523 22.4483 156.211 24.8995C154.897 27.3506 153.104 29.2909 150.83 30.7225C148.556 32.1541 145.987 32.8699 143.124 32.8699C140.809 32.8699 138.684 32.3911 136.742 31.4291C134.802 30.4693 133.144 29.1643 131.773 27.5187V43.3996C131.773 44.2627 131.499 44.9785 130.949 45.547C130.399 46.1155 129.674 46.3986 128.771 46.3986L128.774 46.3963ZM141.95 27.5739C143.95 27.5739 145.734 27.0952 147.304 26.1331C148.871 25.1733 150.116 23.8591 151.039 22.1928C151.96 20.5264 152.423 18.6552 152.423 16.5769C152.423 14.4986 151.962 12.5675 151.039 10.9012C150.119 9.23484 148.874 7.92063 147.304 6.96087C145.736 6.00111 143.95 5.52008 141.95 5.52008C139.95 5.52008 138.215 6.00111 136.627 6.96087C135.039 7.92294 133.793 9.23484 132.891 10.9012C131.989 12.5675 131.538 14.4594 131.538 16.5769C131.538 18.6944 131.989 20.5287 132.891 22.1928C133.793 23.8591 135.039 25.1733 136.627 26.1331C138.215 27.0952 139.989 27.5739 141.95 27.5739Z" fill="white"/>
<path id="Vector_5" d="M178.356 32.9274C175.652 32.9274 173.228 32.3497 171.092 31.192C168.954 30.0366 167.269 28.3404 166.033 26.1055C164.798 23.8707 164.181 21.1249 164.181 17.8704V3.40034C164.181 2.53954 164.464 1.82145 165.032 1.25296C165.601 0.684464 166.317 0.401367 167.18 0.401367C168.043 0.401367 168.756 0.686765 169.327 1.25296C169.896 1.82145 170.181 2.53724 170.181 3.40034V17.8704C170.181 20.0661 170.593 21.8798 171.417 23.3114C172.241 24.743 173.357 25.8017 174.77 26.4876C176.181 27.1734 177.769 27.5164 179.535 27.5164C181.3 27.5164 182.72 27.1827 184.034 26.5175C185.348 25.85 186.396 24.9501 187.18 23.8108C187.963 22.6738 188.357 21.3988 188.357 19.9879H192.062C192.062 22.4207 191.464 24.6164 190.269 26.5773C189.072 28.5383 187.447 30.0873 185.388 31.2242C183.328 32.3612 180.985 32.9297 178.358 32.9297L178.356 32.9274ZM191.356 32.6328C190.492 32.6328 189.777 32.3474 189.208 31.7812C188.64 31.2127 188.357 30.4969 188.357 29.6338V3.40034C188.357 2.49811 188.64 1.77311 189.208 1.22534C189.777 0.677558 190.492 0.401367 191.356 0.401367C192.219 0.401367 192.983 0.677558 193.531 1.22534C194.081 1.77542 194.354 2.50042 194.354 3.40034V29.6338C194.354 30.4969 194.081 31.2127 193.531 31.7812C192.98 32.3497 192.255 32.6328 191.356 32.6328Z" fill="white"/>
<path id="Vector_6" d="M214.353 32.8674C211.608 32.8674 209.069 32.4462 206.737 31.6038C204.404 30.7615 202.59 29.6935 201.297 28.3977C200.71 27.7717 200.463 27.0559 200.562 26.2503C200.659 25.4471 201.041 24.7911 201.708 24.2802C202.493 23.6542 203.267 23.3895 204.031 23.4861C204.795 23.5851 205.451 23.928 206.001 24.5149C206.666 25.2607 207.736 25.9557 209.205 26.6025C210.675 27.2492 212.312 27.5738 214.116 27.5738C216.39 27.5738 218.126 27.2009 219.323 26.4552C220.517 25.7118 221.136 24.7497 221.175 23.5736C221.214 22.3975 220.655 21.3779 219.5 20.5148C218.342 19.654 216.236 18.9474 213.177 18.3973C209.216 17.6125 206.344 16.4364 204.56 14.869C202.776 13.3016 201.883 11.3798 201.883 9.10581C201.883 7.10573 202.47 5.44859 203.649 4.13438C204.825 2.82017 206.335 1.842 208.178 1.19295C210.022 0.546204 211.941 0.22168 213.941 0.22168C216.531 0.22168 218.823 0.633665 220.823 1.45763C222.823 2.2816 224.411 3.41859 225.587 4.86859C226.135 5.49692 226.391 6.15287 226.352 6.83875C226.312 7.52462 225.979 8.10232 225.353 8.57414C224.724 9.00684 223.981 9.14264 223.118 8.98613C222.255 8.82962 221.53 8.47748 220.941 7.9274C219.96 6.98605 218.901 6.3393 217.764 5.98716C216.627 5.63502 215.313 5.45779 213.824 5.45779C212.098 5.45779 210.639 5.7524 209.442 6.3393C208.245 6.92621 207.649 7.79161 207.649 8.92629C207.649 9.63288 207.835 10.2704 208.208 10.8389C208.581 11.4074 209.315 11.9184 210.413 12.3672C211.511 12.8183 213.12 13.2602 215.237 13.6906C218.179 14.2775 220.501 15.0232 222.209 15.9254C223.914 16.8276 225.139 17.8772 225.884 19.0717C226.628 20.2685 227.003 21.6495 227.003 23.2192C227.003 25.0236 226.522 26.6508 225.562 28.1008C224.6 29.5508 223.189 30.7085 221.327 31.5716C219.463 32.4347 217.141 32.8651 214.356 32.8651L214.353 32.8674Z" fill="white"/>
</g>
</svg>
