<svg width="72" height="77" viewBox="0 0 72 77" fill="none" xmlns="http://www.w3.org/2000/svg">
<g id="Group">
<path id="Vector" d="M56.5708 63.2732C55.6755 71.4277 50.2805 77.7847 44.4713 76.9216C38.8923 76.0907 35.4859 69.0502 36.4342 61.2915V61.2777C36.5009 60.7576 36.5792 60.2374 36.685 59.7172C38.234 51.9195 43.7003 46.8606 48.9042 47.9331C51.1045 48.3865 52.9872 49.8895 54.352 52.0622C54.3774 52.1082 54.405 52.1473 54.4303 52.1933C56.1818 55.0381 57.0449 59.0037 56.5708 63.2732Z" fill="white"/>
<path id="Vector_2" d="M31.4166 57.715C30.6847 58.5919 29.7502 59.3675 28.6432 60.0281C27.2346 60.8636 25.5199 61.4965 23.5635 61.8532C15.3239 63.3493 6.20726 59.356 3.67782 53.0589C1.28647 47.1116 5.85052 41.6844 13.5125 40.6027C13.7104 40.5704 13.9084 40.5428 14.1063 40.5244C15.2456 40.4001 16.3918 40.3725 17.5311 40.4462C24.0193 40.8351 30.1714 44.2139 32.4362 48.9114C33.9506 52.06 33.4696 55.2546 31.4143 57.7173L31.4166 57.715Z" fill="white"/>
<path id="Vector_3" d="M20.7326 33.5736C19.1583 35.6082 16.6081 36.209 13.791 35.5093C13.745 35.5024 13.692 35.4886 13.646 35.477C10.8403 34.7659 7.77693 32.7819 5.14852 29.6862C-0.0760868 23.5479 -1.26831 15.7639 2.23701 12.3369C5.57662 9.06861 12.0786 10.9214 16.9787 16.4268C18.2561 17.863 19.324 19.4304 20.1526 21.0369C20.3183 21.366 20.4748 21.6951 20.6267 22.0243C22.6084 26.3904 22.8201 30.8762 20.7326 33.5713V33.5736Z" fill="white"/>
<path id="Vector_4" d="M37.7848 11.8581C37.7134 12.1619 37.6259 12.4634 37.5224 12.7534C37.1403 13.9249 36.5603 14.9928 35.8353 15.9273C33.5705 18.8641 29.9133 20.4338 26.3044 19.5293C25.7566 19.3912 25.2365 19.207 24.7509 18.97C23.5724 18.4107 22.5713 17.5936 21.7933 16.5924C19.8508 14.1297 19.2178 10.5715 20.417 7.13291C22.1869 2.0418 27.3194 -0.789159 31.8904 0.534255C36.39 1.84616 39.023 6.79228 37.7848 11.8581Z" fill="white"/>
<path id="Vector_5" d="M56.69 27.3362C56.4529 27.35 56.202 27.3684 55.958 27.3684C55.9051 27.3753 55.8591 27.3753 55.8061 27.3753C50.2018 27.4605 43.8241 24.2199 41.4788 19.9251C41.0645 19.161 40.7998 18.4176 40.6893 17.7179C40.618 17.2576 40.6042 16.8087 40.6571 16.3806C40.9678 13.7338 43.6077 11.8741 47.6792 11.7706C53.1869 11.6394 59.4772 14.781 61.9652 18.871C64.5154 23.0668 62.2621 26.8874 56.69 27.3362Z" fill="white"/>
<path id="Vector_6" d="M71.4886 53.8343C69.8084 57.9311 64.303 56.9299 59.0393 51.6408C58.7354 51.3439 58.4408 51.0355 58.1439 50.7064C57.5386 50.0412 56.9655 49.3485 56.4454 48.6373C52.2243 43.0191 50.4635 36.4181 52.3739 33.1315C53.4073 31.3523 55.3383 30.8529 57.6445 31.4858C58.9357 31.8357 60.3512 32.5331 61.7874 33.5665C62.8944 34.3559 64.013 35.3456 65.1062 36.5033C70.2503 41.9765 73.1756 49.7029 71.4886 53.8343Z" fill="white"/>
<path id="Vector_7" d="M40.5787 41.5574C35.5796 40.6552 30.0328 36.1234 28.3342 31.5777C26.6817 27.1587 29.3492 24.5026 34.171 25.5245C38.8939 26.5257 44.1047 30.7284 45.9345 35.0416C47.8126 39.4676 45.4741 42.4458 40.5787 41.5551V41.5574Z" fill="white"/>
<g id="Vector_8" style="mix-blend-mode:multiply" opacity="0.08">
<path d="M37.522 12.7533C37.14 13.9248 36.56 14.9927 35.835 15.9271C33.5702 18.864 29.913 20.4337 26.3041 19.5291C25.7563 19.391 25.2361 19.2069 24.7505 18.9698C23.5721 18.4106 22.5709 17.5935 21.793 16.5923C25.4479 14.056 29.8946 12.5737 34.6773 12.5737C35.6393 12.5737 36.5876 12.6336 37.522 12.751V12.7533Z" fill="white"/>
</g>
<g id="Vector_9" style="mix-blend-mode:multiply" opacity="0.23">
<path d="M55.9582 27.3683C55.9053 27.3752 55.8592 27.3752 55.8063 27.3752C50.2019 27.4604 43.8242 24.2198 41.4789 19.925C41.0646 19.1609 40.7999 18.4175 40.6895 17.7178C47.0257 18.6867 52.4989 22.2887 55.9582 27.3683Z" fill="white"/>
</g>
<g id="Vector_10" style="mix-blend-mode:multiply" opacity="0.23">
<path d="M62.5728 39.4885C62.5728 43.9604 61.2816 48.1309 59.0422 51.6409C58.7384 51.3439 58.4438 51.0355 58.1469 50.7064C57.5416 50.0412 56.9685 49.3485 56.4483 48.6373C52.2272 43.0191 50.4665 36.4181 52.3768 33.1315C53.4102 31.3523 55.3412 30.8529 57.6474 31.4858C58.9386 31.8357 60.3541 32.5331 61.7903 33.5665C62.3035 35.4561 62.5751 37.44 62.5751 39.4885H62.5728Z" fill="white"/>
</g>
<g id="Vector_11" style="mix-blend-mode:multiply" opacity="0.25">
<path d="M54.4297 52.1956C50.3329 57.6826 43.7987 61.2386 36.4336 61.2915V61.2777C36.5003 60.7576 36.5786 60.2374 36.6845 59.7172C38.2334 51.9195 43.6997 46.8606 48.9036 47.9331C51.1039 48.3865 52.9866 49.8895 54.3515 52.0622C54.3768 52.1082 54.4044 52.1473 54.4297 52.1933V52.1956Z" fill="white"/>
</g>
<g id="Vector_12" style="mix-blend-mode:multiply" opacity="0.23">
<path d="M20.7326 33.5734C19.1583 35.608 16.6082 36.2087 13.791 35.509C14.1132 29.8908 16.4793 24.825 20.1549 21.0366C20.3206 21.3657 20.4771 21.6949 20.629 22.024C22.6107 26.3901 22.8224 30.8759 20.7349 33.5711L20.7326 33.5734Z" fill="white"/>
</g>
<g id="Vector_13" style="mix-blend-mode:multiply" opacity="0.17">
<path d="M31.4167 57.715C24.2105 54.8104 18.8432 48.3153 17.5312 40.4438C24.0194 40.8328 30.1716 44.2115 32.4363 48.9091C33.9508 52.0577 33.4698 55.2523 31.4144 57.715H31.4167Z" fill="white"/>
</g>
</g>
</svg>
