<svg width="60" height="61" viewBox="0 0 60 61" fill="none" xmlns="http://www.w3.org/2000/svg">
<g id="Frame 1171278344">
<rect x="0.5" y="1.22949" width="59" height="59" rx="9.5" fill="white"/>
<rect x="0.5" y="1.22949" width="59" height="59" rx="9.5" stroke="#D0D5DD"/>
<g id="Group">
<path id="Vector" d="M43.7686 48.0377C43.1663 53.7588 39.537 58.2188 35.6291 57.6132C31.876 57.0303 29.5845 52.0907 30.2224 46.6474V46.6377C30.2673 46.2727 30.3199 45.9078 30.3911 45.5429C31.4332 40.0721 35.1104 36.5228 38.6111 37.2753C40.0913 37.5934 41.3578 38.6478 42.276 40.1722C42.293 40.2045 42.3116 40.2319 42.3286 40.2642C43.5069 42.2601 44.0875 45.0423 43.7686 48.0377Z" fill="#EF072F"/>
<path id="Vector_2" d="M26.8471 44.1365C26.3548 44.7517 25.7261 45.2958 24.9814 45.7593C24.0338 46.3454 22.8803 46.7895 21.5643 47.0398C16.0213 48.0894 9.88845 45.2878 8.18686 40.8698C6.57816 36.6972 9.64846 32.8896 14.8028 32.1307C14.9359 32.1081 15.0691 32.0887 15.2023 32.0758C15.9687 31.9886 16.7397 31.9692 17.5061 32.0209C21.8708 32.2938 26.0095 34.6643 27.533 37.96C28.5518 40.169 28.2282 42.4103 26.8456 44.1381L26.8471 44.1365Z" fill="#F82548"/>
<path id="Vector_3" d="M19.6592 27.2001C18.6002 28.6275 16.8846 29.049 14.9895 28.5581C14.9585 28.5532 14.9229 28.5435 14.8919 28.5355C13.0046 28.0365 10.9438 26.6446 9.17558 24.4727C5.66091 20.1662 4.85888 14.705 7.21696 12.3007C9.46356 10.0077 13.8375 11.3076 17.1339 15.1701C17.9932 16.1777 18.7116 17.2773 19.269 18.4045C19.3805 18.6354 19.4858 18.8663 19.588 19.0972C20.9211 22.1604 21.0635 25.3076 19.6592 27.1984V27.2001Z" fill="#FDEE00"/>
<path id="Vector_4" d="M31.1309 11.9644C31.0829 12.1775 31.0241 12.3891 30.9544 12.5925C30.6974 13.4144 30.3072 14.1637 29.8195 14.8193C28.296 16.8797 25.8357 17.981 23.4079 17.3464C23.0394 17.2495 22.6895 17.1203 22.3628 16.954C21.5701 16.5616 20.8966 15.9884 20.3732 15.2859C19.0665 13.5582 18.6407 11.0617 19.4473 8.64928C20.638 5.07743 24.0907 3.09127 27.1657 4.01976C30.1926 4.94017 31.9639 8.41029 31.1309 11.9644Z" fill="#FFF45C"/>
<path id="Vector_5" d="M43.8481 22.8248C43.6887 22.8345 43.5199 22.8474 43.3558 22.8474C43.3202 22.8522 43.2892 22.8522 43.2536 22.8522C39.4834 22.912 35.1931 20.6384 33.6153 17.6252C33.3367 17.0891 33.1586 16.5676 33.0843 16.0767C33.0363 15.7537 33.027 15.4389 33.0626 15.1385C33.2716 13.2815 35.0475 11.9768 37.7865 11.9041C41.4916 11.8121 45.7231 14.0163 47.3969 16.8857C49.1124 19.8294 47.5966 22.5099 43.8481 22.8248Z" fill="#00008D"/>
<path id="Vector_6" d="M53.8053 41.4144C52.6751 44.2887 48.9715 43.5863 45.4305 39.8756C45.2261 39.6673 45.0279 39.4509 44.8282 39.22C44.421 38.7533 44.0355 38.2673 43.6856 37.7683C40.846 33.8267 39.6615 29.1955 40.9466 26.8897C41.6418 25.6414 42.9408 25.291 44.4922 25.7351C45.3608 25.9805 46.313 26.4698 47.2792 27.1948C48.0239 27.7487 48.7764 28.4431 49.5119 29.2553C52.9723 33.0952 54.9402 38.5159 53.8053 41.4144Z" fill="#00008D"/>
<path id="Vector_7" d="M33.0103 32.8024C29.6474 32.1694 25.916 28.9899 24.7733 25.8008C23.6616 22.7005 25.4561 20.837 28.6998 21.554C31.877 22.2564 35.3823 25.2049 36.6132 28.231C37.8767 31.3362 36.3036 33.4257 33.0103 32.8008V32.8024Z" fill="#00008D"/>
<g id="Vector_8" style="mix-blend-mode:multiply" opacity="0.08">
<path d="M30.9552 12.5925C30.6982 13.4144 30.308 14.1637 29.8203 14.8193C28.2967 16.8797 25.8365 17.981 23.4087 17.3464C23.0402 17.2495 22.6903 17.1203 22.3636 16.954C21.5709 16.5616 20.8974 15.9883 20.374 15.2859C22.8327 13.5065 25.8241 12.4666 29.0415 12.4666C29.6887 12.4666 30.3266 12.5085 30.9552 12.5909V12.5925Z" fill="#EF072F"/>
</g>
<g id="Vector_9" style="mix-blend-mode:multiply" opacity="0.23">
<path d="M43.3565 22.8452C43.3209 22.85 43.2899 22.85 43.2543 22.85C39.4841 22.9097 35.1938 20.6362 33.616 17.623C33.3373 17.0869 33.1593 16.5654 33.085 16.0745C37.3475 16.7543 41.0293 19.2814 43.3565 22.8452Z" fill="#EF072F"/>
</g>
<g id="Vector_10" style="mix-blend-mode:multiply" opacity="0.23">
<path d="M47.8056 31.3496C47.8056 34.4871 46.937 37.4131 45.4305 39.8756C45.2261 39.6673 45.0279 39.4509 44.8282 39.22C44.421 38.7533 44.0355 38.2673 43.6856 37.7683C40.846 33.8267 39.6615 29.1955 40.9466 26.8897C41.6418 25.6414 42.9408 25.291 44.4922 25.7351C45.3608 25.9805 46.313 26.4698 47.2792 27.1948C47.6245 28.5206 47.8072 29.9125 47.8072 31.3496H47.8056Z" fill="#EF072F"/>
</g>
<g id="Vector_11" style="mix-blend-mode:multiply" opacity="0.25">
<path d="M42.3289 40.2658C39.5729 44.1154 35.1773 46.6102 30.2227 46.6474V46.6377C30.2676 46.2727 30.3202 45.9078 30.3914 45.5429C31.4334 40.0721 35.1107 36.5228 38.6114 37.2753C40.0916 37.5934 41.3581 38.6478 42.2763 40.1722C42.2933 40.2045 42.3119 40.2319 42.3289 40.2642V40.2658Z" fill="#0A55CC"/>
</g>
<g id="Vector_12" style="mix-blend-mode:multiply" opacity="0.23">
<path d="M19.658 27.1989C18.5989 28.6264 16.8834 29.0478 14.9883 28.5569C15.205 24.6153 16.7967 21.0612 19.2694 18.4033C19.3808 18.6342 19.4861 18.8651 19.5883 19.0961C20.9214 22.1593 21.0639 25.3064 19.6595 27.1973L19.658 27.1989Z" fill="#EF072F"/>
</g>
<g id="Vector_13" style="mix-blend-mode:multiply" opacity="0.17">
<path d="M26.8459 44.1374C21.9981 42.0996 18.3874 37.5427 17.5049 32.0203C21.8696 32.2932 26.0082 34.6636 27.5318 37.9594C28.5505 40.1684 28.2269 42.4096 26.8443 44.1374H26.8459Z" fill="#0A55CC"/>
</g>
</g>
</g>
</svg>
