<svg width="170" height="42" viewBox="0 0 170 42" fill="none" xmlns="http://www.w3.org/2000/svg">
<g id="Frame" clip-path="url(#clip0_1472_336)">
<g id="Group">
<g id="Layer 1">
<g id="Group_2">
<g id="Group_3">
<path id="Vector" d="M55.9579 29.8323C54.2541 29.8323 52.7366 29.4435 51.4054 28.666C50.0741 27.8885 49.0304 26.8348 48.2754 25.5035C47.5191 24.1723 47.1416 22.666 47.1416 20.9835C47.1416 19.301 47.5141 17.7248 48.2591 16.3835C49.0041 15.0423 50.0266 13.9935 51.3254 13.2373C52.6241 12.481 54.1154 12.1035 55.7979 12.1035C57.0541 12.1035 58.2041 12.3435 59.2479 12.8223C60.2916 13.301 61.2279 14.0198 62.0591 14.9785C62.3566 15.3198 62.4629 15.671 62.3779 16.0323C62.2929 16.3948 62.0591 16.7135 61.6754 16.991C61.3766 17.2035 61.0466 17.2735 60.6854 17.1985C60.3229 17.1248 59.9929 16.9385 59.6954 16.6398C58.6516 15.5323 57.3529 14.9785 55.7979 14.9785C54.7116 14.9785 53.7529 15.2285 52.9229 15.7298C52.0929 16.2298 51.4429 16.9273 50.9741 17.8223C50.5054 18.716 50.2716 19.771 50.2716 20.9848C50.2716 22.1348 50.5116 23.1573 50.9904 24.051C51.4691 24.9448 52.1354 25.6535 52.9866 26.1748C53.8379 26.6973 54.8279 26.9573 55.9579 26.9573C56.7029 26.9573 57.3579 26.8673 57.9229 26.686C58.4866 26.506 59.0041 26.2235 59.4729 25.8398C59.8129 25.5635 60.1641 25.4085 60.5266 25.376C60.8879 25.3435 61.2079 25.446 61.4854 25.6798C61.8479 25.9785 62.0491 26.3135 62.0929 26.686C62.1354 27.0585 62.0079 27.3948 61.7091 27.6923C60.1754 29.1198 58.2591 29.8323 55.9591 29.8323H55.9579Z" fill="#00008D"/>
<path id="Vector_2" d="M73.2717 29.8325C71.7167 29.8325 70.3217 29.4438 69.0867 28.6663C67.8517 27.8888 66.8767 26.835 66.1642 25.5038C65.4505 24.1725 65.0942 22.6663 65.0942 20.9838C65.0942 19.3013 65.483 17.7888 66.2605 16.4475C67.038 15.1063 68.0917 14.0463 69.423 13.2688C70.753 12.4913 72.2505 12.1025 73.9117 12.1025C75.573 12.1025 77.063 12.4913 78.3842 13.2688C79.7042 14.0463 80.753 15.105 81.5305 16.4475C82.308 17.7888 82.6967 19.3013 82.6967 20.9838H81.4505C81.4505 22.6663 81.0942 24.1725 80.3805 25.5038C79.6667 26.835 78.693 27.8888 77.458 28.6663C76.223 29.4438 74.828 29.8325 73.273 29.8325H73.2717ZM73.9105 26.9575C74.9967 26.9575 75.9655 26.6975 76.818 26.175C77.6692 25.6538 78.3405 24.94 78.8305 24.035C79.3205 23.13 79.5655 22.1138 79.5655 20.985C79.5655 19.8563 79.3205 18.8075 78.8305 17.9025C78.3405 16.9975 77.6692 16.2838 76.818 15.7625C75.9655 15.2413 74.9967 14.98 73.9105 14.98C72.8242 14.98 71.8817 15.2413 71.0192 15.7625C70.1567 16.285 69.4755 16.9975 68.9742 17.9025C68.4742 18.8075 68.2242 19.835 68.2242 20.985C68.2242 22.135 68.4742 23.1313 68.9742 24.035C69.4742 24.94 70.1567 25.6538 71.0192 26.175C71.8817 26.6975 72.8455 26.9575 73.9105 26.9575ZM81.0655 29.7363C80.5967 29.7363 80.208 29.5825 79.8992 29.2738C79.5905 28.965 79.4355 28.5763 79.4355 28.1075V23.22L80.043 19.8338L82.6942 20.9838V28.1075C82.6942 28.5763 82.5392 28.965 82.2317 29.2738C81.923 29.5825 81.5342 29.7363 81.0655 29.7363Z" fill="#00008D"/>
<path id="Vector_3" d="M87.9342 29.7375C87.4655 29.7375 87.0767 29.5837 86.768 29.275C86.4592 28.9662 86.3042 28.5775 86.3042 28.1087V13.8925C86.3042 13.4025 86.458 13.0087 86.768 12.7112C87.0767 12.4137 87.4655 12.2637 87.9342 12.2637C88.403 12.2637 88.8179 12.4137 89.1167 12.7112C89.4142 13.01 89.5642 13.4037 89.5642 13.8925V28.1087C89.5642 28.5775 89.4154 28.9662 89.1167 29.275C88.8179 29.5837 88.4242 29.7375 87.9342 29.7375ZM98.6042 29.7375C98.1355 29.7375 97.7467 29.5837 97.438 29.275C97.1292 28.9662 96.9754 28.5775 96.9754 28.1087V18.9725C96.9754 17.6312 96.6455 16.6362 95.9855 15.9862C95.3255 15.3362 94.4629 15.0125 93.3979 15.0125C92.3329 15.0125 91.3742 15.3962 90.6505 16.1625C89.9267 16.9287 89.5642 17.9087 89.5642 19.1012H87.5517C87.5517 17.7175 87.8279 16.4975 88.3829 15.4437C88.9367 14.39 89.703 13.565 90.683 12.9675C91.663 12.3712 92.7805 12.0737 94.0367 12.0737C95.293 12.0737 96.3255 12.34 97.263 12.8725C98.1992 13.405 98.9292 14.1875 99.4517 15.22C99.9729 16.2525 100.234 17.5037 100.234 18.9737V28.11C100.234 28.5787 100.085 28.9675 99.7867 29.2762C99.488 29.585 99.0942 29.7387 98.6042 29.7387V29.7375ZM109.242 29.7375C108.773 29.7375 108.384 29.5837 108.075 29.275C107.767 28.9662 107.612 28.5775 107.612 28.1087V18.9725C107.612 17.6312 107.282 16.6362 106.622 15.9862C105.962 15.3362 105.099 15.0125 104.034 15.0125C102.969 15.0125 102.017 15.3962 101.303 16.1625C100.589 16.9287 100.233 17.9087 100.233 19.1012H97.5817C97.5817 17.7175 97.8792 16.4975 98.4767 15.4437C99.0729 14.39 99.9092 13.565 100.984 12.9675C102.059 12.3712 103.289 12.0737 104.674 12.0737C105.888 12.0737 106.963 12.34 107.9 12.8725C108.838 13.405 109.567 14.1875 110.089 15.22C110.61 16.2525 110.872 17.5037 110.872 18.9737V28.11C110.872 28.5787 110.723 28.9675 110.424 29.2762C110.125 29.585 109.732 29.7387 109.242 29.7387V29.7375Z" fill="#00008D"/>
<path id="Vector_4" d="M116.653 37.1798C116.184 37.1798 115.795 37.0248 115.487 36.7173C115.178 36.4085 115.023 36.0198 115.023 35.551V20.9848C115.044 19.3023 115.438 17.7898 116.205 16.4485C116.972 15.1073 118.015 14.0473 119.335 13.2698C120.655 12.4923 122.147 12.1035 123.808 12.1035C125.469 12.1035 126.992 12.4923 128.312 13.2698C129.632 14.0473 130.68 15.106 131.458 16.4485C132.235 17.7898 132.624 19.3023 132.624 20.9848C132.624 22.6673 132.267 24.1735 131.554 25.5048C130.84 26.836 129.867 27.8898 128.632 28.6673C127.397 29.4448 126.002 29.8335 124.447 29.8335C123.189 29.8335 122.035 29.5735 120.98 29.051C119.927 28.5298 119.027 27.821 118.282 26.9273V35.5523C118.282 36.021 118.133 36.4098 117.834 36.7185C117.535 37.0273 117.142 37.181 116.652 37.181L116.653 37.1798ZM123.809 26.9573C124.895 26.9573 125.864 26.6973 126.717 26.1748C127.568 25.6535 128.244 24.9398 128.745 24.0348C129.245 23.1298 129.497 22.1135 129.497 20.9848C129.497 19.856 129.247 18.8073 128.745 17.9023C128.245 16.9973 127.569 16.2835 126.717 15.7623C125.865 15.241 124.895 14.9798 123.809 14.9798C122.723 14.9798 121.78 15.241 120.918 15.7623C120.055 16.2848 119.379 16.9973 118.889 17.9023C118.399 18.8073 118.154 19.8348 118.154 20.9848C118.154 22.1348 118.399 23.131 118.889 24.0348C119.379 24.9398 120.055 25.6535 120.918 26.1748C121.78 26.6973 122.744 26.9573 123.809 26.9573Z" fill="#00008D"/>
<path id="Vector_5" d="M143.582 29.8647C142.113 29.8647 140.797 29.551 139.637 28.9222C138.476 28.2947 137.561 27.3735 136.889 26.1597C136.218 24.946 135.883 23.4547 135.883 21.6872V13.8285C135.883 13.361 136.037 12.971 136.346 12.6622C136.654 12.3535 137.043 12.1997 137.512 12.1997C137.981 12.1997 138.368 12.3547 138.678 12.6622C138.987 12.971 139.142 13.3597 139.142 13.8285V21.6872C139.142 22.8797 139.366 23.8647 139.813 24.6422C140.261 25.4197 140.867 25.9947 141.634 26.3672C142.401 26.7397 143.263 26.926 144.222 26.926C145.181 26.926 145.952 26.7447 146.666 26.3835C147.379 26.021 147.948 25.5322 148.374 24.9135C148.799 24.296 149.013 23.6035 149.013 22.8372H151.026C151.026 24.1585 150.701 25.351 150.052 26.416C149.402 27.481 148.519 28.3222 147.401 28.9397C146.282 29.5572 145.009 29.866 143.583 29.866L143.582 29.8647ZM150.642 29.7047C150.173 29.7047 149.784 29.5497 149.476 29.2422C149.167 28.9335 149.013 28.5447 149.013 28.076V13.8285C149.013 13.3385 149.167 12.9447 149.476 12.6472C149.784 12.3497 150.173 12.1997 150.642 12.1997C151.111 12.1997 151.526 12.3497 151.823 12.6472C152.122 12.946 152.271 13.3397 152.271 13.8285V28.076C152.271 28.5447 152.122 28.9335 151.823 29.2422C151.524 29.551 151.131 29.7047 150.642 29.7047Z" fill="#00008D"/>
<path id="Vector_6" d="M163.132 29.8325C161.64 29.8325 160.262 29.6038 158.995 29.1463C157.728 28.6888 156.743 28.1088 156.04 27.405C155.722 27.065 155.588 26.6763 155.642 26.2388C155.694 25.8025 155.902 25.4463 156.264 25.1688C156.69 24.8288 157.11 24.685 157.525 24.7375C157.94 24.7913 158.297 24.9775 158.595 25.2963C158.957 25.7013 159.538 26.0788 160.335 26.43C161.134 26.7813 162.023 26.9575 163.003 26.9575C164.238 26.9575 165.18 26.755 165.83 26.35C166.479 25.9463 166.815 25.4238 166.837 24.785C166.858 24.1463 166.554 23.5925 165.927 23.1238C165.298 22.6563 164.154 22.2725 162.493 21.9738C160.342 21.5475 158.782 20.9088 157.813 20.0575C156.844 19.2063 156.359 18.1625 156.359 16.9275C156.359 15.8413 156.678 14.9413 157.318 14.2275C157.957 13.5138 158.777 12.9825 159.778 12.63C160.779 12.2788 161.822 12.1025 162.908 12.1025C164.314 12.1025 165.559 12.3263 166.645 12.7738C167.732 13.2213 168.594 13.8388 169.233 14.6263C169.53 14.9675 169.669 15.3238 169.648 15.6963C169.627 16.0688 169.445 16.3825 169.105 16.6388C168.764 16.8738 168.36 16.9475 167.892 16.8625C167.423 16.7775 167.029 16.5863 166.709 16.2875C166.177 15.7763 165.602 15.425 164.984 15.2338C164.367 15.0425 163.653 14.9463 162.844 14.9463C161.907 14.9463 161.114 15.1063 160.464 15.425C159.814 15.7438 159.49 16.2138 159.49 16.83C159.49 17.2138 159.592 17.56 159.794 17.8688C159.997 18.1775 160.395 18.455 160.992 18.6988C161.588 18.9438 162.462 19.1838 163.612 19.4175C165.209 19.7363 166.47 20.1413 167.398 20.6313C168.324 21.1213 168.989 21.6913 169.394 22.34C169.798 22.99 170.002 23.74 170.002 24.5925C170.002 25.5725 169.74 26.4563 169.219 27.2438C168.697 28.0313 167.93 28.66 166.919 29.1288C165.907 29.5975 164.645 29.8313 163.133 29.8313L163.132 29.8325Z" fill="#00008D"/>
</g>
<g id="Group_4">
<path id="Vector_7" d="M31.2755 34.3972C30.7892 38.826 27.8592 42.2785 24.7042 41.8097C21.6742 41.3585 19.8242 37.5347 20.3392 33.321V33.3135C20.3755 33.031 20.418 32.7485 20.4755 32.466C21.3167 28.231 24.2855 25.4835 27.1117 26.066C28.3067 26.3122 29.3292 27.1285 30.0705 28.3085C30.0842 28.3335 30.0992 28.3547 30.113 28.3797C31.0642 29.9247 31.533 32.0785 31.2755 34.3972Z" fill="#EF072F"/>
<path id="Vector_8" d="M17.6143 31.3787C17.2168 31.855 16.7093 32.2762 16.108 32.635C15.343 33.0887 14.4118 33.4325 13.3493 33.6262C8.87426 34.4387 3.92301 32.27 2.54926 28.85C1.25051 25.62 3.72926 22.6725 7.89051 22.085C7.99801 22.0675 8.10551 22.0525 8.21301 22.0425C8.83176 21.975 9.45426 21.96 10.073 22C13.5968 22.2112 16.938 24.0462 18.168 26.5975C18.9905 28.3075 18.7293 30.0425 17.613 31.38L17.6143 31.3787Z" fill="#F82548"/>
<path id="Vector_9" d="M11.8117 18.2672C10.9567 19.3722 9.57175 19.6984 8.04175 19.3184C8.01675 19.3147 7.988 19.3072 7.963 19.3009C6.43925 18.9147 4.7755 17.8372 3.348 16.1559C0.510498 12.8222 -0.137002 8.59469 1.76675 6.73344C3.5805 4.95844 7.11175 5.96469 9.773 8.95469C10.4667 9.73469 11.0467 10.5859 11.4967 11.4584C11.5867 11.6372 11.6717 11.8159 11.7542 11.9947C12.8305 14.3659 12.9455 16.8022 11.8117 18.2659V18.2672Z" fill="#FDEE00"/>
<path id="Vector_10" d="M21.073 6.47359C21.0342 6.63859 20.9867 6.80234 20.9305 6.95984C20.723 7.59609 20.408 8.17609 20.0142 8.68359C18.7842 10.2786 16.798 11.1311 14.838 10.6398C14.5405 10.5648 14.258 10.4648 13.9942 10.3361C13.3542 10.0323 12.8105 9.58859 12.388 9.04484C11.333 7.70734 10.9892 5.77484 11.6405 3.90734C12.6017 1.14234 15.3892 -0.395164 17.8717 0.323586C20.3155 1.03609 21.7455 3.72234 21.073 6.47359Z" fill="#FFF45C"/>
<path id="Vector_11" d="M31.3405 14.8797C31.2118 14.8872 31.0755 14.8972 30.943 14.8972C30.9143 14.901 30.8893 14.901 30.8605 14.901C27.8168 14.9472 24.353 13.1872 23.0793 10.8547C22.8543 10.4397 22.7105 10.036 22.6505 9.65598C22.6118 9.40598 22.6043 9.16223 22.633 8.92973C22.8018 7.49223 24.2355 6.48223 26.4468 6.42598C29.438 6.35473 32.8543 8.06098 34.2055 10.2822C35.5905 12.561 34.3668 14.636 31.3405 14.8797Z" fill="#00008D"/>
<path id="Vector_12" d="M39.3779 29.2711C38.4654 31.4961 35.4754 30.9524 32.6167 28.0799C32.4517 27.9186 32.2917 27.7511 32.1304 27.5724C31.8017 27.2111 31.4904 26.8349 31.2079 26.4486C28.9154 23.3974 27.9592 19.8124 28.9967 18.0274C29.5579 17.0611 30.6067 16.7899 31.8592 17.1336C32.5604 17.3236 33.3292 17.7024 34.1092 18.2636C34.7104 18.6924 35.3179 19.2299 35.9117 19.8586C38.7054 22.8311 40.2942 27.0274 39.3779 29.2711Z" fill="#00008D"/>
<path id="Vector_13" d="M22.5904 22.6034C19.8754 22.1134 16.8629 19.6522 15.9404 17.1834C15.0429 14.7834 16.4917 13.3409 19.1104 13.8959C21.6754 14.4397 24.5054 16.7222 25.4992 19.0647C26.5192 21.4684 25.2492 23.0859 22.5904 22.6022V22.6034Z" fill="#00008D"/>
<g id="Vector_14" style="mix-blend-mode:multiply" opacity="0.08">
<path d="M20.9304 6.9598C20.7229 7.59605 20.4079 8.17605 20.0142 8.68355C18.7842 10.2786 16.7979 11.1311 14.8379 10.6398C14.5404 10.5648 14.2579 10.4648 13.9942 10.3361C13.3542 10.0323 12.8104 9.58855 12.3879 9.0448C14.3729 7.6673 16.7879 6.8623 19.3854 6.8623C19.9079 6.8623 20.4229 6.8948 20.9304 6.95855V6.9598Z" fill="#EF072F"/>
</g>
<g id="Vector_15" style="mix-blend-mode:multiply" opacity="0.23">
<path d="M30.943 14.8975C30.9143 14.9012 30.8893 14.9012 30.8605 14.9012C27.8168 14.9475 24.353 13.1875 23.0793 10.855C22.8543 10.44 22.7105 10.0362 22.6505 9.65625C26.0918 10.1825 29.0643 12.1388 30.943 14.8975Z" fill="#EF072F"/>
</g>
<g id="Vector_16" style="mix-blend-mode:multiply" opacity="0.23">
<path d="M34.5355 21.4799C34.5355 23.9086 33.8343 26.1736 32.618 28.0799C32.453 27.9186 32.293 27.7511 32.1318 27.5724C31.803 27.2111 31.4918 26.8349 31.2093 26.4486C28.9168 23.3974 27.9605 19.8124 28.998 18.0274C29.5593 17.0611 30.608 16.7899 31.8605 17.1336C32.5618 17.3236 33.3305 17.7024 34.1105 18.2636C34.3893 19.2899 34.5368 20.3674 34.5368 21.4799H34.5355Z" fill="#EF072F"/>
</g>
<g id="Vector_17" style="mix-blend-mode:multiply" opacity="0.25">
<path d="M30.113 28.381C27.888 31.361 24.3392 33.2922 20.3392 33.321V33.3135C20.3755 33.031 20.418 32.7485 20.4755 32.466C21.3167 28.231 24.2855 25.4835 27.1117 26.066C28.3067 26.3122 29.3292 27.1285 30.0705 28.3085C30.0842 28.3335 30.0992 28.3547 30.113 28.3797V28.381Z" fill="#0A55CC"/>
</g>
<g id="Vector_18" style="mix-blend-mode:multiply" opacity="0.23">
<path d="M11.8117 18.2672C10.9567 19.3722 9.57175 19.6985 8.04175 19.3185C8.21675 16.2672 9.50175 13.516 11.498 11.4585C11.588 11.6372 11.673 11.816 11.7555 11.9947C12.8317 14.366 12.9467 16.8022 11.813 18.266L11.8117 18.2672Z" fill="#EF072F"/>
</g>
<g id="Vector_19" style="mix-blend-mode:multiply" opacity="0.17">
<path d="M17.6142 31.3785C13.7005 29.801 10.7855 26.2735 10.073 21.9985C13.5967 22.2098 16.938 24.0448 18.168 26.596C18.9905 28.306 18.7292 30.041 17.613 31.3785H17.6142Z" fill="#0A55CC"/>
</g>
</g>
</g>
</g>
</g>
</g>
<defs>
<clipPath id="clip0_1472_336">
<rect width="169.319" height="41.705" fill="white" transform="translate(0.681274 0.147461)"/>
</clipPath>
</defs>
</svg>
