<svg width="227" height="48" viewBox="0 0 227 48" fill="none" xmlns="http://www.w3.org/2000/svg">
<g id="Group">
<path id="Vector" d="M16.7795 33.658C13.6424 33.658 10.8483 32.9422 8.39711 31.5106C5.94592 30.079 4.02409 28.1388 2.63393 25.6876C1.24147 23.2364 0.546387 20.463 0.546387 17.365C0.546387 14.2671 1.23226 11.3648 2.60401 8.8952C3.97575 6.42559 5.85845 4.49456 8.2498 3.1021C10.6412 1.70964 13.387 1.01456 16.4849 1.01456C18.798 1.01456 20.9154 1.45646 22.8373 2.33797C24.7591 3.21948 26.483 4.54289 28.0135 6.30821C28.5613 6.93655 28.757 7.58329 28.6005 8.24845C28.4439 8.91591 28.0136 9.50282 27.307 10.0138C26.7569 10.405 26.1493 10.5339 25.4841 10.3958C24.8166 10.26 24.209 9.9171 23.6612 9.36702C21.7394 7.32782 19.3481 6.30821 16.4849 6.30821C14.4848 6.30821 12.7195 6.76853 11.1912 7.69147C9.66298 8.6121 8.46615 9.89639 7.60306 11.5443C6.73996 13.19 6.30957 15.1325 6.30957 17.3673C6.30957 19.4848 6.75147 21.3675 7.63298 23.0131C8.51449 24.6588 9.74124 25.9638 11.3086 26.9235C12.876 27.8856 14.6989 28.3643 16.7795 28.3643C18.1512 28.3643 19.3573 28.1986 20.3976 27.8649C21.4356 27.5335 22.3885 27.0133 23.2516 26.3067C23.8776 25.7981 24.5243 25.5127 25.1918 25.4528C25.857 25.393 26.4462 25.5817 26.9571 26.0121C27.6246 26.5622 27.9951 27.179 28.0757 27.8649C28.1539 28.5508 27.9192 29.1699 27.3691 29.7177C24.5451 32.3461 21.0167 33.658 16.7818 33.658H16.7795Z" fill="#00008D"/>
<path id="Vector_2" d="M48.659 33.6579C45.7959 33.6579 43.2273 32.9421 40.9533 31.5105C38.6794 30.0789 36.8841 28.1387 35.5722 25.6875C34.258 23.2363 33.6021 20.4629 33.6021 17.365C33.6021 14.267 34.3178 11.4821 35.7494 9.0125C37.181 6.5429 39.1213 4.59115 41.5725 3.15957C44.0213 1.72798 46.7787 1.01218 49.8375 1.01218C52.8963 1.01218 55.6398 1.72798 58.0725 3.15957C60.503 4.59115 62.434 6.5406 63.8656 9.0125C65.2972 11.4821 66.013 14.267 66.013 17.365H63.7183C63.7183 20.4629 63.0624 23.2363 61.7482 25.6875C60.434 28.1387 58.641 30.0789 56.3671 31.5105C54.0931 32.9421 51.5245 33.6579 48.6613 33.6579H48.659ZM49.8352 28.3643C51.8352 28.3643 53.619 27.8855 55.1887 26.9235C56.756 25.9637 57.992 24.6495 58.8942 22.9832C59.7964 21.3168 60.2475 19.4456 60.2475 17.3673C60.2475 15.2889 59.7964 13.3579 58.8942 11.6916C57.992 10.0252 56.756 8.711 55.1887 7.75124C53.619 6.79147 51.8352 6.31044 49.8352 6.31044C47.8351 6.31044 46.0997 6.79147 44.5116 7.75124C42.9235 8.7133 41.6691 10.0252 40.7462 11.6916C39.8256 13.3579 39.3652 15.2498 39.3652 17.3673C39.3652 19.4847 39.8256 21.3191 40.7462 22.9832C41.6668 24.6495 42.9235 25.9637 44.5116 26.9235C46.0997 27.8855 47.8742 28.3643 49.8352 28.3643ZM63.0095 33.4807C62.1464 33.4807 61.4306 33.1976 60.8621 32.6291C60.2936 32.0606 60.0082 31.3448 60.0082 30.4817V21.4825L61.1268 15.2475L66.0084 17.365V30.4817C66.0084 31.3448 65.723 32.0606 65.1568 32.6291C64.5883 33.1976 63.8725 33.4807 63.0095 33.4807Z" fill="#00008D"/>
<path id="Vector_3" d="M75.6566 33.483C74.7935 33.483 74.0777 33.1999 73.5092 32.6314C72.9407 32.0629 72.6553 31.3471 72.6553 30.484V4.30807C72.6553 3.40585 72.9384 2.68085 73.5092 2.13307C74.0777 1.58529 74.7935 1.3091 75.6566 1.3091C76.5196 1.3091 77.2838 1.58529 77.8338 2.13307C78.3816 2.68315 78.6578 3.40815 78.6578 4.30807V30.484C78.6578 31.3471 78.3839 32.0629 77.8338 32.6314C77.2838 33.1999 76.5588 33.483 75.6566 33.483ZM95.3029 33.483C94.4398 33.483 93.724 33.1999 93.1555 32.6314C92.587 32.0629 92.3039 31.3471 92.3039 30.484V13.6617C92.3039 11.1921 91.6963 9.36006 90.4811 8.16323C89.2658 6.9664 87.6777 6.37029 85.7168 6.37029C83.7558 6.37029 81.9905 7.07688 80.6579 8.48775C79.3253 9.89863 78.6578 11.7031 78.6578 13.8988H74.9523C74.9523 11.3509 75.4609 9.10458 76.4828 7.16434C77.5024 5.2241 78.9133 3.70505 80.7177 2.60489C82.5222 1.50704 84.5798 0.959259 86.8929 0.959259C89.206 0.959259 91.1071 1.4495 92.8333 2.42997C94.5572 3.41045 95.9013 4.85125 96.8634 6.75236C97.8231 8.65347 98.3042 10.9574 98.3042 13.664V30.4863C98.3042 31.3494 98.0303 32.0652 97.4802 32.6337C96.9301 33.2022 96.2051 33.4853 95.3029 33.4853V33.483ZM114.889 33.483C114.026 33.483 113.311 33.1999 112.742 32.6314C112.174 32.0629 111.888 31.3471 111.888 30.484V13.6617C111.888 11.1921 111.281 9.36006 110.065 8.16323C108.85 6.9664 107.262 6.37029 105.301 6.37029C103.34 6.37029 101.586 7.07688 100.272 8.48775C98.9578 9.89863 98.3019 11.7031 98.3019 13.8988H93.4202C93.4202 11.3509 93.968 9.10458 95.0681 7.16434C96.166 5.2241 97.7058 3.70505 99.6851 2.60489C101.664 1.50704 103.929 0.959259 106.479 0.959259C108.714 0.959259 110.694 1.4495 112.42 2.42997C114.146 3.41045 115.488 4.85125 116.45 6.75236C117.41 8.65347 117.891 10.9574 117.891 13.664V30.4863C117.891 31.3494 117.617 32.0652 117.067 32.6337C116.517 33.2022 115.792 33.4853 114.889 33.4853V33.483Z" fill="#00008D"/>
<path id="Vector_4" d="M128.536 47.1866C127.673 47.1866 126.957 46.9012 126.388 46.335C125.82 45.7665 125.534 45.0507 125.534 44.1876V17.3672C125.574 14.2693 126.299 11.4844 127.712 9.01476C129.123 6.54515 131.044 4.59341 133.475 3.16182C135.905 1.73023 138.651 1.01443 141.71 1.01443C144.769 1.01443 147.572 1.73023 150.003 3.16182C152.433 4.59341 154.364 6.54285 155.796 9.01476C157.227 11.4844 157.943 14.2693 157.943 17.3672C157.943 20.4652 157.285 23.2386 155.973 25.6898C154.659 28.141 152.866 30.0812 150.592 31.5128C148.318 32.9444 145.749 33.6602 142.886 33.6602C140.571 33.6602 138.446 33.1814 136.504 32.2194C134.564 31.2596 132.906 29.9546 131.535 28.309V44.1899C131.535 45.053 131.261 45.7688 130.711 46.3373C130.161 46.9058 129.436 47.1889 128.533 47.1889L128.536 47.1866ZM141.712 28.3642C143.712 28.3642 145.496 27.8855 147.066 26.9234C148.633 25.9637 149.878 24.6495 150.801 22.9831C151.722 21.3168 152.185 19.4456 152.185 17.3672C152.185 15.2889 151.724 13.3579 150.801 11.6915C149.881 10.0252 148.635 8.71095 147.066 7.75118C145.498 6.79142 143.712 6.31039 141.712 6.31039C139.712 6.31039 137.977 6.79142 136.389 7.75118C134.801 8.71325 133.555 10.0252 132.653 11.6915C131.751 13.3579 131.3 15.2498 131.3 17.3672C131.3 19.4847 131.751 21.3191 132.653 22.9831C133.555 24.6495 134.801 25.9637 136.389 26.9234C137.977 27.8855 139.751 28.3642 141.712 28.3642Z" fill="#00008D"/>
<path id="Vector_5" d="M178.119 33.7177C175.414 33.7177 172.991 33.14 170.855 31.9823C168.717 30.8269 167.032 29.1306 165.796 26.8958C164.56 24.661 163.943 21.9152 163.943 18.6607V4.19063C163.943 3.32983 164.226 2.61174 164.795 2.04325C165.363 1.47475 166.079 1.19166 166.942 1.19166C167.805 1.19166 168.519 1.47706 169.09 2.04325C169.658 2.61174 169.944 3.32753 169.944 4.19063V18.6607C169.944 20.8564 170.356 22.6701 171.18 24.1017C172.004 25.5333 173.12 26.592 174.533 27.2779C175.944 27.9637 177.532 28.3067 179.297 28.3067C181.063 28.3067 182.483 27.9729 183.797 27.3078C185.111 26.6403 186.158 25.7404 186.943 24.6011C187.726 23.4641 188.119 22.1891 188.119 20.7782H191.825C191.825 23.211 191.226 25.4067 190.032 27.3676C188.835 29.3286 187.21 30.8776 185.15 32.0145C183.09 33.1515 180.747 33.72 178.121 33.72L178.119 33.7177ZM191.118 33.4231C190.255 33.4231 189.539 33.1377 188.971 32.5715C188.402 32.003 188.119 31.2872 188.119 30.4241V4.19063C188.119 3.28841 188.402 2.56341 188.971 2.01563C189.539 1.46785 190.255 1.19166 191.118 1.19166C191.981 1.19166 192.745 1.46785 193.293 2.01563C193.843 2.56571 194.117 3.29071 194.117 4.19063V30.4241C194.117 31.2872 193.843 32.003 193.293 32.5715C192.743 33.14 192.018 33.4231 191.118 33.4231Z" fill="#00008D"/>
<path id="Vector_6" d="M214.116 33.6579C211.37 33.6579 208.831 33.2367 206.5 32.3943C204.166 31.552 202.352 30.484 201.059 29.1882C200.472 28.5622 200.226 27.8464 200.325 27.0408C200.421 26.2376 200.803 25.5816 201.471 25.0707C202.256 24.4447 203.029 24.18 203.793 24.2766C204.557 24.3756 205.213 24.7185 205.763 25.3055C206.428 26.0512 207.499 26.7462 208.967 27.393C210.438 28.0397 212.074 28.3643 213.879 28.3643C216.153 28.3643 217.888 27.9914 219.085 27.2457C220.279 26.5023 220.898 25.5402 220.938 24.3641C220.977 23.188 220.417 22.1684 219.262 21.3053C218.104 20.4445 215.998 19.7379 212.94 19.1878C208.978 18.403 206.106 17.2269 204.322 15.6595C202.539 14.0921 201.646 12.1703 201.646 9.89632C201.646 7.89624 202.233 6.23909 203.411 4.92488C204.587 3.61068 206.097 2.6325 207.94 1.98345C209.784 1.33671 211.704 1.01218 213.704 1.01218C216.293 1.01218 218.585 1.42417 220.585 2.24814C222.585 3.07211 224.174 4.20909 225.35 5.65909C225.897 6.28743 226.153 6.94338 226.114 7.62925C226.075 8.31512 225.741 8.89282 225.115 9.36465C224.487 9.79735 223.743 9.93314 222.88 9.77663C222.017 9.62013 221.292 9.26798 220.703 8.7179C219.722 7.77655 218.664 7.12981 217.527 6.77766C216.39 6.42552 215.075 6.2483 213.586 6.2483C211.86 6.2483 210.401 6.5429 209.204 7.12981C208.007 7.71671 207.411 8.58211 207.411 9.71679C207.411 10.4234 207.598 11.0609 207.97 11.6294C208.343 12.1979 209.077 12.7089 210.175 13.1577C211.273 13.6088 212.882 14.0507 214.999 14.4811C217.941 15.068 220.263 15.8137 221.971 16.7159C223.676 17.6181 224.901 18.6677 225.647 19.8622C226.39 21.059 226.765 22.44 226.765 24.0097C226.765 25.8141 226.284 27.4413 225.324 28.8913C224.362 30.3413 222.951 31.499 221.089 32.3621C219.225 33.2252 216.903 33.6556 214.118 33.6556L214.116 33.6579Z" fill="#00008D"/>
</g>
</svg>
