<svg width="72" height="77" viewBox="0 0 72 77" fill="none" xmlns="http://www.w3.org/2000/svg">
<g id="Group">
<path id="Vector" d="M56.3325 63.0635C55.4372 71.218 50.0422 77.575 44.233 76.7119C38.654 75.881 35.2476 68.8405 36.1959 61.0818V61.068C36.2626 60.5478 36.3409 60.0277 36.4468 59.5075C37.9957 51.7097 43.462 46.6508 48.6659 47.7234C50.8662 48.1768 52.7489 49.6797 54.1138 51.8524C54.1391 51.8985 54.1667 51.9376 54.192 51.9836C55.9435 54.8284 56.8066 58.794 56.3325 63.0635Z" fill="#EF072F"/>
<path id="Vector_2" d="M31.178 57.5051C30.4461 58.382 29.5117 59.1576 28.4046 59.8182C26.9961 60.6536 25.2814 61.2866 23.325 61.6433C15.0853 63.1394 5.96874 59.1461 3.43929 52.849C1.04794 46.9017 5.61199 41.4745 13.274 40.3928C13.4719 40.3605 13.6699 40.3329 13.8678 40.3145C15.0071 40.1902 16.1533 40.1626 17.2926 40.2363C23.7807 40.6252 29.9329 44.004 32.1976 48.7015C33.7121 51.8501 33.2311 55.0447 31.1757 57.5074L31.178 57.5051Z" fill="#F82548"/>
<path id="Vector_3" d="M20.4943 33.3638C18.92 35.3984 16.3698 35.9991 13.5527 35.2994C13.5067 35.2925 13.4537 35.2787 13.4077 35.2672C10.6021 34.556 7.53865 32.572 4.91024 29.4764C-0.314368 23.3381 -1.50659 15.5541 1.99873 12.127C5.33833 8.85876 11.8403 10.7115 16.7404 16.2169C18.0178 17.6531 19.0857 19.2205 19.9143 20.827C20.08 21.1561 20.2365 21.4853 20.3884 21.8144C22.3701 26.1805 22.5818 30.6663 20.4943 33.3615V33.3638Z" fill="#FDEE00"/>
<path id="Vector_4" d="M37.5465 11.6482C37.4751 11.952 37.3877 12.2536 37.2841 12.5436C36.902 13.7151 36.322 14.783 35.597 15.7174C33.3323 18.6543 29.675 20.224 26.0661 19.3194C25.5184 19.1813 24.9982 18.9972 24.5126 18.7601C23.3342 18.2009 22.333 17.3838 21.555 16.3826C19.6125 13.9199 18.9796 10.3616 20.1787 6.92307C21.9486 1.83196 27.0811 -0.998998 31.6521 0.324416C36.1517 1.63632 38.7847 6.58244 37.5465 11.6482Z" fill="#FFF45C"/>
<path id="Vector_5" d="M56.4522 27.1264C56.2151 27.1402 55.9642 27.1586 55.7203 27.1586C55.6673 27.1655 55.6213 27.1655 55.5683 27.1655C49.964 27.2507 43.5863 24.0101 41.241 19.7153C40.8267 18.9512 40.562 18.2078 40.4515 17.5081C40.3802 17.0478 40.3664 16.5989 40.4193 16.1709C40.73 13.524 43.3699 11.6643 47.4414 11.5608C52.9491 11.4296 59.2394 14.5712 61.7274 18.6612C64.2776 22.857 62.0243 26.6776 56.4522 27.1264Z" fill="#00008D"/>
<path id="Vector_6" d="M71.2508 53.6246C69.5706 57.7215 64.0652 56.7203 58.8015 51.4312C58.4977 51.1343 58.2031 50.8259 57.9061 50.4968C57.3008 49.8316 56.7277 49.1388 56.2076 48.4276C51.9865 42.8095 50.2257 36.2085 52.1361 32.9218C53.1695 31.1427 55.1005 30.6433 57.4067 31.2762C58.6979 31.6261 60.1134 32.3234 61.5496 33.3568C62.6566 34.1463 63.7752 35.136 64.8685 36.2937C70.0125 41.7669 72.9378 49.4933 71.2508 53.6246Z" fill="#00008D"/>
<path id="Vector_7" d="M40.3404 41.3479C35.3413 40.4457 29.7945 35.9138 28.0959 31.3682C26.4434 26.9491 29.1109 24.2931 33.9328 25.315C38.6556 26.3162 43.8664 30.5189 45.6962 34.8321C47.5743 39.258 45.2359 42.2363 40.3404 41.3456V41.3479Z" fill="#00008D"/>
<g id="Vector_8" style="mix-blend-mode:multiply" opacity="0.08">
<path d="M37.2842 12.5436C36.9022 13.7151 36.3222 14.7831 35.5972 15.7175C33.3324 18.6543 29.6752 20.224 26.0663 19.3195C25.5185 19.1814 24.9984 18.9973 24.5127 18.7602C23.3343 18.2009 22.3331 17.3839 21.5552 16.3827C25.2101 13.8463 29.6568 12.3641 34.4395 12.3641C35.4015 12.3641 36.3498 12.4239 37.2842 12.5413V12.5436Z" fill="#EF072F"/>
</g>
<g id="Vector_9" style="mix-blend-mode:multiply" opacity="0.23">
<path d="M55.7199 27.1586C55.667 27.1655 55.6209 27.1655 55.568 27.1655C49.9636 27.2507 43.5859 24.01 41.2406 19.7153C40.8263 18.9511 40.5616 18.2077 40.4512 17.508C46.7874 18.477 52.2606 22.079 55.7199 27.1586Z" fill="#EF072F"/>
</g>
<g id="Vector_10" style="mix-blend-mode:multiply" opacity="0.23">
<path d="M62.3348 39.2788C62.3348 43.7508 61.0436 47.9213 58.8042 51.4312C58.5003 51.1343 58.2057 50.8259 57.9088 50.4968C57.3035 49.8316 56.7304 49.1388 56.2103 48.4277C51.9891 42.8095 50.2284 36.2085 52.1388 32.9218C53.1722 31.1427 55.1032 30.6433 57.4094 31.2762C58.7006 31.6261 60.1161 32.3234 61.5522 33.3568C62.0655 35.2464 62.3371 37.2304 62.3371 39.2788H62.3348Z" fill="#EF072F"/>
</g>
<g id="Vector_11" style="mix-blend-mode:multiply" opacity="0.25">
<path d="M54.1917 51.9859C50.0949 57.4729 43.5606 61.0289 36.1956 61.0818V61.068C36.2623 60.5478 36.3406 60.0277 36.4464 59.5075C37.9954 51.7097 43.4617 46.6508 48.6656 47.7234C50.8659 48.1768 52.7486 49.6797 54.1134 51.8524C54.1387 51.8985 54.1664 51.9376 54.1917 51.9836V51.9859Z" fill="#0A55CC"/>
</g>
<g id="Vector_12" style="mix-blend-mode:multiply" opacity="0.23">
<path d="M20.4941 33.3638C18.9198 35.3984 16.3696 35.9991 13.5525 35.2994C13.8747 29.6812 16.2407 24.6154 19.9164 20.827C20.0821 21.1561 20.2386 21.4853 20.3905 21.8144C22.3722 26.1805 22.5839 30.6663 20.4964 33.3615L20.4941 33.3638Z" fill="#EF072F"/>
</g>
<g id="Vector_13" style="mix-blend-mode:multiply" opacity="0.17">
<path d="M31.178 57.5051C23.9717 54.6005 18.6044 48.1054 17.2925 40.234C23.7807 40.6229 29.9328 44.0017 32.1976 48.6992C33.712 51.8478 33.231 55.0424 31.1757 57.5051H31.178Z" fill="#0A55CC"/>
</g>
</g>
</svg>
