<svg width="60" height="61" viewBox="0 0 60 61" fill="none" xmlns="http://www.w3.org/2000/svg">
<g id="hugeicons:new-job">
<g id="Group">
<path id="Vector" d="M27.5175 52.625H24.0125C15.05 52.625 10.57 52.625 7.785 49.7875C5 46.95 5 42.3825 5 33.25C5 24.1175 5 19.55 7.785 16.7125C10.57 13.875 15.05 13.875 24.0125 13.875H33.52C42.4825 13.875 46.965 13.875 49.75 16.7125C51.8925 18.895 52.385 22.1025 52.5 27.625" stroke="white" stroke-width="5" stroke-linecap="round" stroke-linejoin="round"/>
<path id="Vector_2" d="M40 13.875L39.75 13.1C38.5125 9.25 37.895 7.325 36.4225 6.225C34.9475 5.125 32.9925 5.125 29.075 5.125H28.4175C24.505 5.125 22.5475 5.125 21.075 6.225C19.6 7.325 18.9825 9.25 17.745 13.1L17.5 13.875M42.7775 33.2625C43.24 32.8375 43.47 32.625 43.75 32.625C44.03 32.625 44.26 32.8375 44.7225 33.2625L46.505 34.905C46.72 35.1025 46.8275 35.2025 46.96 35.25C47.095 35.3 47.24 35.295 47.535 35.2825L49.94 35.1875C50.56 35.1625 50.87 35.1525 51.0825 35.33C51.295 35.5075 51.3375 35.815 51.42 36.43L51.75 38.895C51.79 39.18 51.8075 39.32 51.8775 39.445C51.9475 39.565 52.06 39.6525 52.285 39.83L54.225 41.355C54.705 41.735 54.945 41.9225 54.9925 42.1925C55.04 42.4625 54.8775 42.7225 54.5575 43.2425L53.2425 45.36C53.0925 45.6025 53.0175 45.725 52.9925 45.86C52.9675 45.995 52.9975 46.1375 53.0575 46.4175L53.58 48.8625C53.705 49.4625 53.77 49.7625 53.6325 50.0025C53.495 50.2425 53.2025 50.3375 52.62 50.5275L50.305 51.28C50.03 51.37 49.89 51.415 49.7825 51.505C49.675 51.5975 49.6075 51.7275 49.475 51.985L48.345 54.1625C48.0575 54.72 47.9125 54.9975 47.65 55.0925C47.3875 55.1875 47.1 55.0675 46.52 54.8275L44.3 53.9075C44.0275 53.795 43.8925 53.7375 43.75 53.7375C43.6075 53.7375 43.4725 53.795 43.2 53.9075L40.98 54.8275C40.4 55.0675 40.1125 55.1875 39.85 55.0925C39.5875 54.9975 39.4425 54.7175 39.155 54.1625L38.025 51.985C37.89 51.7275 37.825 51.5975 37.7175 51.5075C37.61 51.4175 37.47 51.37 37.195 51.2825L34.88 50.5275C34.2975 50.3375 34.005 50.2425 33.8675 50.0025C33.73 49.7625 33.7925 49.465 33.92 48.8625L34.445 46.4175C34.5025 46.1375 34.5325 45.9975 34.5075 45.8625C34.4562 45.6816 34.3714 45.512 34.2575 45.3625L32.945 43.2425C32.62 42.7225 32.46 42.4625 32.5075 42.1925C32.555 41.9225 32.795 41.735 33.275 41.3575L35.215 39.8325C35.44 39.6525 35.5525 39.565 35.6225 39.4425C35.6925 39.32 35.71 39.18 35.7475 38.8925L36.08 36.43C36.1625 35.8175 36.205 35.5075 36.4175 35.33C36.63 35.1525 36.94 35.1625 37.56 35.1875L39.9675 35.2825C40.26 35.295 40.405 35.3 40.54 35.25C40.6725 35.2 40.78 35.1025 40.995 34.905L42.7775 33.2625Z" stroke="white" stroke-width="5" stroke-linecap="round" stroke-linejoin="round"/>
</g>
</g>
</svg>
