<svg width="32" height="33" viewBox="0 0 32 33" fill="none" xmlns="http://www.w3.org/2000/svg">
<g id="Layer_1" clip-path="url(#clip0_2485_16752)">
<g id="XMLID_228_">
<path id="XMLID_229_" d="M4.27435 12.4928C1.56904 17.1873 3.28886 24.3116 6.28049 28.6313C7.77379 30.7909 9.28566 32.7295 11.3564 32.7295C11.3955 32.7295 11.4346 32.7287 11.4747 32.7272C12.4476 32.6883 13.1506 32.3888 13.8304 32.0993C14.5936 31.7741 15.3829 31.4378 16.6209 31.4378C17.7987 31.4378 18.5503 31.7632 19.2772 32.0777C19.9936 32.3876 20.7315 32.7083 21.8218 32.6878C24.1543 32.6444 25.5865 30.5525 26.85 28.7071C28.1685 26.7803 28.8299 24.9095 29.0531 24.1946L29.0621 24.1662C29.1046 24.0391 29.0446 23.9004 28.9227 23.8445C28.9194 23.8429 28.907 23.8378 28.9035 23.8363C28.4928 23.6683 24.8897 22.0699 24.8518 17.7133C24.8167 14.1738 27.5548 12.2994 28.104 11.9597L28.1296 11.9437C28.1891 11.9054 28.2305 11.8447 28.2446 11.7752C28.2586 11.7059 28.2439 11.6337 28.2041 11.5754C26.3141 8.80952 23.4173 8.39268 22.251 8.34253C22.0818 8.32564 21.9071 8.31714 21.7317 8.31714C20.3619 8.31714 19.0496 8.83449 17.9954 9.25017C17.2677 9.53713 16.6392 9.78494 16.2056 9.78494C15.7185 9.78494 15.0864 9.53408 14.3544 9.24367C13.3755 8.85516 12.266 8.41492 11.0914 8.41492C11.0634 8.41492 11.0358 8.41524 11.0086 8.41576C8.27761 8.45595 5.69704 10.0184 4.27435 12.4928Z" fill="black"/>
<path id="XMLID_230_" d="M22.2537 0.729816C20.5998 0.797173 18.6159 1.81519 17.4302 3.2041C16.4224 4.37152 15.438 6.31796 15.6973 8.27993C15.7136 8.40268 15.8135 8.49742 15.937 8.50697C16.0486 8.51568 16.1625 8.52008 16.2761 8.52019C17.8932 8.52019 19.6376 7.62555 20.829 6.18503C22.0829 4.66393 22.7169 2.71182 22.5251 0.963258C22.51 0.826236 22.3894 0.724465 22.2537 0.729816Z" fill="black"/>
</g>
</g>
<defs>
<clipPath id="clip0_2485_16752">
<rect width="32" height="32" fill="white" transform="translate(0 0.729492)"/>
</clipPath>
</defs>
</svg>
