<svg width="35" height="35" viewBox="0 0 35 35" fill="none" xmlns="http://www.w3.org/2000/svg">
<g id="mage:filter">
<path id="Vector" d="M30.9889 17.5H12.9712M6.61143 17.5H4.00977M6.61143 17.5C6.61143 16.6569 6.94638 15.8482 7.54259 15.252C8.1388 14.6558 8.94743 14.3209 9.7906 14.3209C10.6338 14.3209 11.4424 14.6558 12.0386 15.252C12.6348 15.8482 12.9698 16.6569 12.9698 17.5C12.9698 18.3432 12.6348 19.1518 12.0386 19.7481C11.4424 20.3443 10.6338 20.6792 9.7906 20.6792C8.94743 20.6792 8.1388 20.3443 7.54259 19.7481C6.94638 19.1518 6.61143 18.3432 6.61143 17.5ZM30.9889 27.1353H22.6064M22.6064 27.1353C22.6064 27.9786 22.2707 28.7882 21.6743 29.3845C21.078 29.9809 20.2692 30.3159 19.4258 30.3159C18.5826 30.3159 17.774 29.9795 17.1778 29.3833C16.5816 28.7871 16.2466 27.9784 16.2466 27.1353M22.6064 27.1353C22.6064 26.2919 22.2707 25.4838 21.6743 24.8875C21.078 24.2911 20.2692 23.9561 19.4258 23.9561C18.5826 23.9561 17.774 24.291 17.1778 24.8872C16.5816 25.4835 16.2466 26.2921 16.2466 27.1353M16.2466 27.1353H4.00977M30.9889 7.86484H26.4608M20.101 7.86484H4.00977M20.101 7.86484C20.101 7.02167 20.436 6.21303 21.0322 5.61683C21.6284 5.02062 22.437 4.68567 23.2802 4.68567C23.6977 4.68567 24.1111 4.7679 24.4968 4.92767C24.8825 5.08744 25.233 5.32161 25.5282 5.61683C25.8234 5.91204 26.0576 6.26251 26.2173 6.64822C26.3771 7.03394 26.4593 7.44734 26.4593 7.86484C26.4593 8.28233 26.3771 8.69574 26.2173 9.08145C26.0576 9.46716 25.8234 9.81763 25.5282 10.1128C25.233 10.4081 24.8825 10.6422 24.4968 10.802C24.1111 10.9618 23.6977 11.044 23.2802 11.044C22.437 11.044 21.6284 10.7091 21.0322 10.1128C20.436 9.51664 20.101 8.708 20.101 7.86484Z" stroke="#98A2B3" stroke-width="1.5" stroke-miterlimit="10" stroke-linecap="round"/>
</g>
</svg>
