<svg width="49" height="49" viewBox="0 0 49 49" fill="none" xmlns="http://www.w3.org/2000/svg">
<g id="oui:users">
<path id="Vector" fill-rule="evenodd" clip-rule="evenodd" d="M17.3913 13.516C18.1718 12.6555 18.6856 11.5868 18.8704 10.4398C19.0552 9.29286 18.9031 8.1169 18.4324 7.05473C17.9618 5.99255 17.1929 5.08986 16.2191 4.45625C15.2454 3.82263 14.1086 3.48535 12.9468 3.48535C11.785 3.48535 10.6483 3.82263 9.67449 4.45625C8.70071 5.08986 7.93183 5.99255 7.46119 7.05473C6.99055 8.1169 6.8384 9.29286 7.02322 10.4398C7.20803 11.5868 7.72186 12.6555 8.50231 13.516C8.26231 13.642 8.03231 13.778 7.81231 13.924C6.44131 14.839 5.56231 16.036 5.01331 17.143C4.35895 18.4765 3.99493 19.9335 3.94531 21.418V27.484C3.94531 28.2797 4.26138 29.0427 4.82399 29.6054C5.3866 30.168 6.14966 30.484 6.94531 30.484H14.4453C14.9705 29.4184 15.6633 28.444 16.4973 27.598L16.4583 27.484H6.94531V21.484C6.94531 21.484 6.94531 15.484 12.9453 15.484C15.9663 15.484 17.4663 17.005 18.2103 18.514C18.8853 17.752 19.6893 17.104 20.5893 16.606C19.8325 15.2979 18.7247 14.2275 17.3913 13.516ZM12.9453 12.484C13.741 12.484 14.504 12.168 15.0666 11.6054C15.6292 11.0427 15.9453 10.2797 15.9453 9.48404C15.9453 8.68839 15.6292 7.92532 15.0666 7.36272C14.504 6.80011 13.741 6.48404 12.9453 6.48404C12.1497 6.48404 11.3866 6.80011 10.824 7.36272C10.2614 7.92532 9.94531 8.68839 9.94531 9.48404C9.94531 10.2797 10.2614 11.0427 10.824 11.6054C11.3866 12.168 12.1497 12.484 12.9453 12.484ZM42.9453 30.484H35.4453C34.9202 29.4184 34.2273 28.444 33.3933 27.598L33.4323 27.484H42.9453V21.484C42.9453 21.484 42.9453 15.484 36.9453 15.484C33.9243 15.484 32.4243 17.005 31.6803 18.514C31.0016 17.7473 30.1971 17.1021 29.3013 16.606C30.0582 15.2979 31.1659 14.2275 32.4993 13.516C31.7189 12.6555 31.205 11.5868 31.0202 10.4398C30.8354 9.29286 30.9876 8.1169 31.4582 7.05473C31.9288 5.99255 32.6977 5.08986 33.6715 4.45625C34.6453 3.82263 35.782 3.48535 36.9438 3.48535C38.1056 3.48535 39.2424 3.82263 40.2161 4.45625C41.1899 5.08986 41.9588 5.99255 42.4294 7.05473C42.9001 8.1169 43.0522 9.29286 42.8674 10.4398C42.6826 11.5868 42.1688 12.6555 41.3883 13.516C41.6283 13.642 41.8583 13.778 42.0783 13.924C43.4493 14.839 44.3283 16.036 44.8773 17.143C45.522 18.4437 45.8859 19.8655 45.9453 21.316V27.484C45.9453 28.2797 45.6292 29.0427 45.0666 29.6054C44.504 30.168 43.741 30.484 42.9453 30.484ZM36.9453 12.484C37.741 12.484 38.504 12.168 39.0666 11.6054C39.6292 11.0427 39.9453 10.2797 39.9453 9.48404C39.9453 8.68839 39.6292 7.92532 39.0666 7.36272C38.504 6.80011 37.741 6.48404 36.9453 6.48404C36.1497 6.48404 35.3866 6.80011 34.824 7.36272C34.2614 7.92532 33.9453 8.68839 33.9453 9.48404C33.9453 10.2797 34.2614 11.0427 34.824 11.6054C35.3866 12.168 36.1497 12.484 36.9453 12.484Z" fill="white"/>
<path id="Vector_2" fill-rule="evenodd" clip-rule="evenodd" d="M30.9453 24.4844C30.9453 26.0354 30.3573 27.4514 29.3913 28.5164C30.9029 29.3349 32.1223 30.6036 32.8803 32.1464C33.5372 33.4766 33.9004 34.9325 33.9453 36.4154V42.4844C33.9453 43.2801 33.6292 44.0431 33.0666 44.6057C32.504 45.1683 31.741 45.4844 30.9453 45.4844H18.9453C18.1497 45.4844 17.3866 45.1683 16.824 44.6057C16.2614 44.0431 15.9453 43.2801 15.9453 42.4844V36.4184C15.9467 36.2832 15.9528 36.1482 15.9633 36.0134C16.0615 34.6679 16.418 33.354 17.0133 32.1434C17.7705 30.601 18.9888 29.3324 20.4993 28.5134C19.8451 27.7915 19.3765 26.9212 19.1341 25.9776C18.8916 25.034 18.8826 24.0456 19.1077 23.0977C19.3329 22.1498 19.7855 21.2711 20.4264 20.5373C21.0673 19.8036 21.8772 19.2369 22.7862 18.8863C23.6951 18.5357 24.6758 18.4118 25.6434 18.5251C26.611 18.6385 27.5365 18.9857 28.3398 19.5369C29.1431 20.0881 29.8002 20.8266 30.2541 21.6886C30.7081 22.5506 30.9453 23.5102 30.9453 24.4844ZM18.9453 36.4844V42.4844H30.9453V36.4844C30.9453 36.4844 30.9453 30.4844 24.9453 30.4844C18.9453 30.4844 18.9453 36.4844 18.9453 36.4844ZM27.9453 24.4844C27.9453 25.2801 27.6292 26.0431 27.0666 26.6057C26.504 27.1683 25.741 27.4844 24.9453 27.4844C24.1497 27.4844 23.3866 27.1683 22.824 26.6057C22.2614 26.0431 21.9453 25.2801 21.9453 24.4844C21.9453 23.6888 22.2614 22.9257 22.824 22.3631C23.3866 21.8005 24.1497 21.4844 24.9453 21.4844C25.741 21.4844 26.504 21.8005 27.0666 22.3631C27.6292 22.9257 27.9453 23.6888 27.9453 24.4844Z" fill="white"/>
</g>
</svg>
