<svg width="65" height="77" viewBox="0 0 65 77" fill="none" xmlns="http://www.w3.org/2000/svg">
<g id="Group">
<path id="Vector" d="M51.1693 63.0635C50.3659 71.218 45.5247 77.575 40.3118 76.7119C35.3054 75.881 32.2487 68.8405 33.0996 61.0818V61.068C33.1595 60.5478 33.2297 60.0277 33.3247 59.5075C34.7147 51.7097 39.6199 46.6508 44.2897 47.7234C46.2641 48.1768 47.9536 49.6797 49.1784 51.8524C49.2011 51.8985 49.2259 51.9376 49.2486 51.9836C50.8203 54.8284 51.5948 58.794 51.1693 63.0635Z" fill="white"/>
<path id="Vector_2" d="M28.5972 57.5051C27.9404 58.382 27.1019 59.1577 26.1084 59.8182C24.8445 60.6537 23.3058 61.2866 21.5502 61.6434C14.1563 63.1394 5.97543 59.1462 3.70562 52.849C1.55972 46.9017 5.6553 41.4746 12.5308 40.3928C12.7085 40.3606 12.8861 40.333 13.0637 40.3146C14.0861 40.1903 15.1146 40.1627 16.1369 40.2363C21.9592 40.6253 27.4798 44.004 29.5121 48.7016C30.8711 51.8501 30.4395 55.0447 28.5951 57.5074L28.5972 57.5051Z" fill="white"/>
<path id="Vector_3" d="M19.01 33.3638C17.5973 35.3984 15.3088 35.9991 12.7809 35.2994C12.7396 35.2925 12.6921 35.2787 12.6507 35.2672C10.1331 34.556 7.38411 32.572 5.02548 29.4764C0.33714 23.3381 -0.73271 15.5541 2.41282 12.127C5.40964 8.85878 11.2442 10.7116 15.6414 16.217C16.7876 17.6531 17.746 19.2205 18.4895 20.827C18.6382 21.1562 18.7786 21.4853 18.9149 21.8144C20.6932 26.1805 20.8832 30.6663 19.01 33.3615V33.3638Z" fill="white"/>
<path id="Vector_4" d="M34.3117 11.6482C34.2477 11.952 34.1692 12.2536 34.0763 12.5436C33.7334 13.7151 33.2129 14.783 32.5624 15.7174C30.5301 18.6543 27.2482 20.224 24.0097 19.3194C23.5182 19.1813 23.0514 18.9972 22.6156 18.7601C21.5582 18.2009 20.6598 17.3838 19.9617 16.3826C18.2185 13.9199 17.6505 10.3616 18.7266 6.92307C20.3148 1.83196 24.9206 -0.998998 29.0224 0.324416C33.0601 1.63632 35.4229 6.58244 34.3117 11.6482Z" fill="white"/>
<path id="Vector_5" d="M51.2768 27.1265C51.0641 27.1403 50.839 27.1587 50.6201 27.1587C50.5726 27.1656 50.5313 27.1656 50.4838 27.1656C45.4546 27.2508 39.7316 24.0101 37.627 19.7154C37.2552 18.9513 37.0177 18.2078 36.9185 17.5082C36.8545 17.0478 36.8421 16.599 36.8896 16.1709C37.1685 13.5241 39.5374 11.6644 43.191 11.5608C48.1334 11.4297 53.778 14.5713 56.0106 18.6612C58.299 22.857 56.2771 26.6777 51.2768 27.1265Z" fill="white"/>
<path id="Vector_6" d="M64.5566 53.6247C63.0489 57.7215 58.1086 56.7203 53.3851 51.4313C53.1125 51.1343 52.8481 50.8259 52.5817 50.4968C52.0385 49.8316 51.5242 49.1389 51.0575 48.4277C47.2696 42.8095 45.6896 36.2085 47.4039 32.9219C48.3312 31.1427 50.064 30.6433 52.1335 31.2762C53.2922 31.6261 54.5624 32.3235 55.8512 33.3569C56.8446 34.1463 57.8483 35.136 58.8294 36.2937C63.4454 41.7669 66.0705 49.4933 64.5566 53.6247Z" fill="white"/>
<path id="Vector_7" d="M36.8189 41.3479C32.333 40.4457 27.3555 35.9139 25.8312 31.3682C24.3483 26.9492 26.7421 24.2932 31.069 25.3151C35.3071 26.3163 39.983 30.519 41.625 34.8321C43.3103 39.2581 41.2119 42.2363 36.8189 41.3456V41.3479Z" fill="white"/>
<g id="Vector_8" style="mix-blend-mode:multiply" opacity="0.08">
<path d="M34.0765 12.5437C33.7337 13.7152 33.2132 14.7831 32.5626 15.7176C30.5303 18.6544 27.2485 20.2241 24.01 19.3195C23.5184 19.1814 23.0517 18.9973 22.6159 18.7603C21.5584 18.201 20.66 17.3839 19.9619 16.3827C23.2417 13.8464 27.2319 12.3641 31.5237 12.3641C32.387 12.3641 33.238 12.424 34.0765 12.5414V12.5437Z" fill="white"/>
</g>
<g id="Vector_9" style="mix-blend-mode:multiply" opacity="0.23">
<path d="M50.62 27.1586C50.5725 27.1655 50.5312 27.1655 50.4837 27.1655C45.4545 27.2507 39.7315 24.01 37.6269 19.7153C37.2551 18.9512 37.0176 18.2077 36.9185 17.5081C42.6044 18.477 47.5158 22.079 50.62 27.1586Z" fill="white"/>
</g>
<g id="Vector_10" style="mix-blend-mode:multiply" opacity="0.23">
<path d="M56.5558 39.2789C56.5558 43.7509 55.3972 47.9213 53.3876 51.4313C53.1149 51.1343 52.8506 50.8259 52.5841 50.4968C52.041 49.8316 51.5267 49.1389 51.0599 48.4277C47.2721 42.8095 45.6921 36.2085 47.4063 32.9219C48.3337 31.1427 50.0665 30.6433 52.136 31.2762C53.2946 31.6261 54.5648 32.3235 55.8536 33.3569C56.3142 35.2465 56.5579 37.2305 56.5579 39.2789H56.5558Z" fill="white"/>
</g>
<g id="Vector_11" style="mix-blend-mode:multiply" opacity="0.25">
<path d="M49.2486 51.9859C45.5722 57.4729 39.7087 61.0289 33.0996 61.0818V61.068C33.1595 60.5478 33.2297 60.0277 33.3247 59.5075C34.7147 51.7097 39.6199 46.6508 44.2897 47.7234C46.2641 48.1768 47.9536 49.6797 49.1783 51.8524C49.2011 51.8985 49.2258 51.9376 49.2486 51.9836V51.9859Z" fill="white"/>
</g>
<g id="Vector_12" style="mix-blend-mode:multiply" opacity="0.23">
<path d="M19.0094 33.3638C17.5967 35.3984 15.3083 35.9991 12.7803 35.2994C13.0694 29.6812 15.1926 24.6154 18.491 20.827C18.6397 21.1562 18.7801 21.4853 18.9164 21.8144C20.6947 26.1805 20.8847 30.6663 19.0114 33.3615L19.0094 33.3638Z" fill="white"/>
</g>
<g id="Vector_13" style="mix-blend-mode:multiply" opacity="0.17">
<path d="M28.597 57.5051C22.1304 54.6005 17.314 48.1054 16.1367 40.234C21.9589 40.623 27.4796 44.0017 29.5119 48.6993C30.8709 51.8478 30.4393 55.0424 28.5949 57.5051H28.597Z" fill="white"/>
</g>
</g>
</svg>
