<svg width="24" height="25" viewBox="0 0 24 25" fill="none" xmlns="http://www.w3.org/2000/svg">
<g id="round-phone-24px">
<g id="Rounded_1_">
<path id="Path" fill-rule="evenodd" clip-rule="evenodd" d="M19.23 15.8652L16.69 15.5752C16.08 15.5052 15.48 15.7152 15.05 16.1452L13.21 17.9852C10.38 16.5452 8.06004 14.2352 6.62004 11.3952L8.47004 9.54523C8.90004 9.11523 9.11004 8.51523 9.04004 7.90523L8.75004 5.38523C8.63004 4.37523 7.78004 3.61523 6.76004 3.61523H5.03004C3.90004 3.61523 2.96004 4.55523 3.03004 5.68523C3.56004 14.2252 10.39 21.0452 18.92 21.5752C20.05 21.6452 20.99 20.7052 20.99 19.5752V17.8452C21 16.8352 20.24 15.9852 19.23 15.8652Z" fill="white"/>
</g>
</g>
</svg>
