<svg width="24" height="25" viewBox="0 0 24 25" fill="none" xmlns="http://www.w3.org/2000/svg">
<g id="round-local-printshop-24px">
<path id="Shape" fill-rule="evenodd" clip-rule="evenodd" d="M7 3.60547H17C17.55 3.60547 18 4.05547 18 4.60547V6.60547C18 7.15547 17.55 7.60547 17 7.60547H7C6.45 7.60547 6 7.15547 6 6.60547V4.60547C6 4.05547 6.45 3.60547 7 3.60547ZM5 8.60547H19C20.66 8.60547 22 9.94547 22 11.6055V15.6055C22 16.7055 21.1 17.6055 20 17.6055H18V19.6055C18 20.7055 17.1 21.6055 16 21.6055H8C6.9 21.6055 6 20.7055 6 19.6055V17.6055H4C2.9 17.6055 2 16.7055 2 15.6055V11.6055C2 9.94547 3.34 8.60547 5 8.60547ZM9 19.6055H15C15.55 19.6055 16 19.1555 16 18.6055V14.6055H8V18.6055C8 19.1555 8.45 19.6055 9 19.6055ZM19 12.6055C18.45 12.6055 18 12.1555 18 11.6055C18 11.0555 18.45 10.6055 19 10.6055C19.55 10.6055 20 11.0555 20 11.6055C20 12.1555 19.55 12.6055 19 12.6055Z" fill="white"/>
</g>
</svg>
