<svg width="24" height="25" viewBox="0 0 24 25" fill="none" xmlns="http://www.w3.org/2000/svg">
<g id="rss black.1">
<path id="RSS" fill-rule="evenodd" clip-rule="evenodd" d="M21 21.6055H17.5717C17.5717 13.5704 11.0352 7.03383 3.00019 7.03383V3.60547C12.9252 3.60547 21 11.6804 21 21.6055ZM3.00019 19.034C3.00019 17.614 4.15154 16.4626 5.57159 16.4626C6.99165 16.4626 8.14299 17.614 8.14299 19.034C8.14299 20.4541 6.99165 21.6055 5.57159 21.6055C4.15154 21.6055 3.00019 20.4541 3.00019 19.034ZM11.5718 21.6055H15.0001C15.0001 14.9885 9.61686 9.60525 3 9.60525V13.0343C7.72623 13.0343 11.5718 16.8792 11.5718 21.6055Z" fill="white"/>
</g>
</svg>
