<svg width="174" height="139" viewBox="0 0 174 139" fill="none" xmlns="http://www.w3.org/2000/svg">
<path id="Vector" d="M173.223 133.947L164.903 4.82727C164.807 3.58516 164.25 2.42382 163.342 1.57105C162.434 0.718275 161.24 0.235616 159.994 0.217743H4.85955C4.2657 0.210297 3.67683 0.326813 3.13056 0.559847C2.5843 0.792881 2.09265 1.13731 1.68705 1.57112C1.28144 2.00493 0.970795 2.51858 0.774957 3.07925C0.57912 3.63991 0.502397 4.23527 0.549696 4.82727L8.88296 133.947C8.97442 135.193 9.52919 136.359 10.4379 137.216C11.3466 138.073 12.5434 138.558 13.7923 138.577H168.927C169.521 138.582 170.11 138.462 170.656 138.227C171.201 137.992 171.692 137.645 172.096 137.21C172.5 136.774 172.809 136.259 173.004 135.697C173.198 135.135 173.272 134.54 173.223 133.947Z" fill="white"/>
</svg>
