<svg width="216" height="152" viewBox="0 0 216 152" fill="none" xmlns="http://www.w3.org/2000/svg">
<g id="freepik--Folder--inject-19">
<path id="Vector" d="M191.499 151.716H24.3955L48.5549 14.6835H215.658L191.499 151.716Z" fill="#00008D"/>
<path id="Vector_2" d="M105.746 0.486206H51.0592L48.5527 14.6803H107.078L105.746 0.486206Z" fill="#00008D"/>
<g id="Group" opacity="0.1">
<path id="Vector_3" d="M191.503 151.714H24.3994L48.5588 14.682H215.662L191.503 151.714Z" fill="#FDFDFE"/>
<path id="Vector_4" d="M105.749 0.484619H51.0631L48.5566 14.6787H107.082L105.749 0.484619Z" fill="#FDFDFE"/>
</g>
<path id="Vector_5" d="M45.1581 6.27916C44.7924 4.70965 44.7924 3.07708 45.1581 1.50757C45.5237 3.07708 45.5237 4.70965 45.1581 6.27916Z" fill="white"/>
<path id="Vector_6" d="M40.3034 7.68483C39.7449 7.10576 39.2638 6.45684 38.8719 5.75426C38.4609 5.06631 38.1384 4.3292 37.9121 3.56042C38.4722 4.13609 38.9535 4.78341 39.3436 5.48551C39.7537 6.17587 40.0761 6.91468 40.3034 7.68483Z" fill="white"/>
<path id="Vector_7" d="M36.7881 11.3324C35.2469 10.8639 33.834 10.0476 32.6582 8.94666C33.4271 9.17014 34.1643 9.49083 34.852 9.90097C35.5546 10.2954 36.2051 10.7763 36.7881 11.3324Z" fill="white"/>
<path id="Vector_8" d="M35.5596 16.2434C33.9901 16.6091 32.3576 16.6091 30.7881 16.2434C32.3576 15.8777 33.9901 15.8777 35.5596 16.2434Z" fill="white"/>
<path id="Vector_9" d="M36.9857 21.1013C36.4042 21.6569 35.7557 22.1377 35.0551 22.5328C34.3674 22.9429 33.6302 23.2636 32.8613 23.4871C33.4404 22.9287 34.0893 22.4475 34.7919 22.0556C35.4786 21.6435 36.2161 21.3227 36.9857 21.1013Z" fill="white"/>
<path id="Vector_10" d="M40.6328 24.6074C40.1659 26.1509 39.3496 27.566 38.2471 28.7428C38.4704 27.9729 38.793 27.2355 39.2069 26.549C39.5978 25.8439 40.077 25.1914 40.6328 24.6074Z" fill="white"/>
<path id="Vector_11" d="M45.5355 25.8168C45.7267 26.5974 45.8188 27.3989 45.8097 28.2026C45.8215 29.0063 45.7293 29.8082 45.5355 30.5884C45.3389 29.8087 45.2467 29.0065 45.2612 28.2026C45.2521 27.3989 45.3443 26.5974 45.5355 25.8168Z" fill="white"/>
<path id="Vector_12" d="M50.4023 24.4405C50.9608 25.0196 51.4419 25.6685 51.8338 26.3711C52.2459 27.0578 52.5667 27.7953 52.7881 28.5649C51.6856 27.3881 50.8692 25.973 50.4023 24.4296V24.4405Z" fill="white"/>
<path id="Vector_13" d="M53.9082 20.766C54.6778 20.9874 55.4153 21.3082 56.102 21.7203C56.8046 22.1122 57.4535 22.5933 58.0326 23.1518C57.2629 22.9304 56.5254 22.6096 55.8388 22.1975C55.1362 21.8056 54.4873 21.3244 53.9082 20.766Z" fill="white"/>
<path id="Vector_14" d="M55.1172 15.8571C56.6886 15.4915 58.3229 15.4915 59.8942 15.8571C58.3229 16.2226 56.6886 16.2226 55.1172 15.8571Z" fill="white"/>
<path id="Vector_15" d="M53.7161 10.992C54.2967 10.4369 54.9454 9.95775 55.6466 9.566C56.332 9.14996 57.0697 8.82718 57.8404 8.6062C56.6636 9.70869 55.2486 10.5251 53.7051 10.992H53.7161Z" fill="white"/>
<path id="Vector_16" d="M50.0664 7.49171C50.2922 6.72365 50.6128 5.9867 51.0207 5.29788C51.4126 4.59529 51.8937 3.94638 52.4522 3.36731C52.2308 4.13695 51.91 4.87444 51.4979 5.56114C51.106 6.26373 50.6249 6.91263 50.0664 7.49171Z" fill="white"/>
<path id="Vector_17" d="M191.245 151.711H23.7859L0.00488281 19.6531H167.47L191.245 151.711Z" fill="#00008D"/>
<path id="Vector_18" d="M58.0429 100.383C61.8867 100.383 65.0028 97.2669 65.0028 93.4231C65.0028 89.5792 61.8867 86.4631 58.0429 86.4631C54.1991 86.4631 51.083 89.5792 51.083 93.4231C51.083 97.2669 54.1991 100.383 58.0429 100.383Z" fill="white"/>
<path id="Vector_19" d="M113.054 100.383C116.897 100.383 120.014 97.2669 120.014 93.4231C120.014 89.5792 116.897 86.4631 113.054 86.4631C109.21 86.4631 106.094 89.5792 106.094 93.4231C106.094 97.2669 109.21 100.383 113.054 100.383Z" fill="white"/>
<path id="Vector_20" d="M95.5463 101.496L95.1624 100.767C95.1295 100.701 91.5317 94.0537 84.2975 94.0537C77.7161 94.0537 76.0707 100.312 76.0269 100.58L75.8294 101.376L74.2334 100.992L74.4254 100.191C74.4254 100.114 76.3888 92.4083 84.2975 92.4083C92.5244 92.4083 96.4568 99.6918 96.6213 100.004L97.0052 100.728L95.5463 101.496Z" fill="white"/>
</g>
</svg>
