<svg width="168" height="244" viewBox="0 0 168 244" fill="none" xmlns="http://www.w3.org/2000/svg">
<g id="freepik--Code--inject-61">
<path id="Vector" d="M164.995 65.1405L164.438 72.4384L165.269 72.5017L165.825 65.2038L164.995 65.1405Z" fill="#00008D"/>
<path id="Vector_2" d="M167.155 37.1636L165.604 57.4546L166.435 57.518L167.985 37.2271L167.155 37.1636Z" fill="#00008D"/>
<path id="Vector_3" d="M167.47 5.82629H24.2523L6.02539 243.808H149.243L167.47 5.82629Z" fill="#00008D"/>
<g id="Group" opacity="0.7">
<path id="Vector_4" d="M162.102 0H18.8842L0.657227 237.982H143.875L162.102 0Z" fill="#00008D"/>
<path id="Vector_5" opacity="0.9" d="M162.102 0H18.8842L0.657227 237.982H143.875L162.102 0Z" fill="white"/>
</g>
<path id="Vector_6" d="M57.6637 27.5599H29.9111L30.4524 20.4657H58.2049L57.6637 27.5599Z" fill="#00008D"/>
<path id="Vector_7" d="M104.861 43.1506H28.7139L29.2634 36.0564H105.402L104.861 43.1506Z" fill="white"/>
<path id="Vector_8" d="M128.609 27.5599H65.9766L66.5178 20.4657H129.159L128.609 27.5599Z" fill="white"/>
<path id="Vector_9" d="M97.2734 74.3463H130.03L130.572 67.2604H97.823L97.2734 74.3463Z" fill="white"/>
<path id="Vector_10" d="M116.596 51.6633H28.0588L27.5176 58.7576H116.054L116.596 51.6633Z" fill="white"/>
<path id="Vector_11" d="M26.3203 74.3463H88.953L89.5026 67.2604H26.8699L26.3203 74.3463Z" fill="#00008D"/>
<path id="Vector_12" d="M52.8766 89.956H25.124L25.6652 82.8618H53.4178L52.8766 89.956Z" fill="#00008D"/>
<path id="Vector_13" d="M72.3626 105.544H23.9268L24.468 98.458H72.9038L72.3626 105.544Z" fill="white"/>
<path id="Vector_14" d="M116.639 105.544H80.6934L81.2346 98.458H117.181L116.639 105.544Z" fill="white"/>
<path id="Vector_15" d="M123.832 89.956H61.1992L61.7405 82.8618H124.381L123.832 89.956Z" fill="white"/>
<path id="Vector_16" d="M92.4863 136.751H125.243L125.784 129.656H93.0359L92.4863 136.751Z" fill="#00008D"/>
<path id="Vector_17" d="M111.807 114.059H23.2707L22.7295 121.154H111.266L111.807 114.059Z" fill="white"/>
<path id="Vector_18" d="M21.5322 136.751H84.1649L84.7145 129.656H22.0735L21.5322 136.751Z" fill="white"/>
<path id="Vector_19" opacity="0.4" d="M138.676 201.703H16.5576L20.4045 151.46H142.531L138.676 201.703Z" fill="#FCFCFD"/>
<path id="Vector_20" opacity="0.4" d="M137.868 212.25H15.7504L14.6846 226.131H136.811L137.868 212.25Z" fill="white"/>
</g>
</svg>
