<svg width="24" height="25" viewBox="0 0 24 25" fill="none" xmlns="http://www.w3.org/2000/svg">
<g id="googleplus black.1">
<path id="GooglePlus" fill-rule="evenodd" clip-rule="evenodd" d="M11.8078 14.1917C10.9134 14.1917 8.71698 14.1946 8.71698 14.1946V12.0164H14.2075C14.59 14.652 13.4364 18.6055 8.71698 18.6055C5.55957 18.6055 3 16.143 3 13.1055C3 10.0679 5.55957 7.60547 8.71698 7.60547C10.1985 7.60547 11.5484 8.14763 12.5641 9.03699C11.777 9.75203 11.5247 10.0246 11.3103 10.2562C11.1988 10.3767 11.0976 10.4861 10.9366 10.6409C10.3492 10.1735 9.70868 9.83814 8.71698 9.83814C6.8413 9.83814 5.37736 11.301 5.37736 13.1055C5.37736 14.91 6.8413 16.3728 8.71698 16.3728C10.5704 16.3728 11.3235 15.6038 11.8078 14.1917ZM19.0189 10.2193V12.1253H21V13.4867H19.0189V15.4471H17.6038V13.4867H15.566V12.1253H17.6038V10.2193H19.0189Z" fill="white"/>
</g>
</svg>
