<svg width="239" height="209" viewBox="0 0 239 209" fill="none" xmlns="http://www.w3.org/2000/svg">
<g id="Group 1000002968">
<g id="freepik--background-complete--inject-2">
<g id="Group 1000002967">
<path id="Vector" d="M196.346 21.4816L203.531 26.1939L211.494 22.9438L209.227 31.2385L214.777 37.8052L206.19 38.2107L201.663 45.5151L198.619 37.4796L190.271 35.4324L196.978 30.0488L196.346 21.4816Z" fill="#00008D"/>
<path id="Vector_2" d="M202.661 148.086L209.852 152.799L217.808 149.555L215.542 157.843L221.091 164.41L212.504 164.822L207.978 172.126L204.934 164.091L196.586 162.037L203.292 156.66L202.661 148.086Z" fill="#00008D"/>
<path id="Vector_3" d="M118.5 184.616L125.691 189.335L133.647 186.085L131.38 194.38L136.93 200.94L128.343 201.352L123.817 208.656L120.773 200.621L112.425 198.567L119.131 193.19L118.5 184.616Z" fill="#00008D"/>
<path id="Vector_4" d="M17.6501 165.508L24.8415 170.22L32.7973 166.976L30.5375 175.265L36.0807 181.831L27.5001 182.243L22.9672 189.548L19.9231 181.506L11.5752 179.458L18.2815 174.081L17.6501 165.508Z" fill="#00008D"/>
<path id="Vector_5" d="M3.96484 95.7089L7.64697 98.1215L11.7212 96.4599L10.5648 100.707L13.4094 104.07L9.0095 104.283L6.68988 108.025L5.12797 103.904L0.847656 102.854L4.28387 100.102L3.96484 95.7089Z" fill="#00008D"/>
<path id="Vector_6" d="M228.708 88.7515L232.39 91.1641L236.471 89.5025L235.308 93.7496L238.153 97.1193L233.753 97.3254L231.433 101.067L229.871 96.9532L225.591 95.903L229.027 93.1448L228.708 88.7515Z" fill="#00008D"/>
<path id="Vector_7" d="M187.143 107.476L192.215 110.806L197.831 108.513L196.236 114.368L200.151 119.001L194.089 119.293L190.892 124.451L188.745 118.775L182.856 117.326L187.589 113.531L187.143 107.476Z" fill="#E0E0E0"/>
<path id="Vector_8" d="M178.5 182.824L182.182 185.237L186.263 183.575L185.1 187.822L187.945 191.192L183.545 191.398L181.225 195.14L179.663 191.026L175.39 189.976L178.826 187.218L178.5 182.824Z" fill="#00008D"/>
<path id="Vector_9" d="M153.305 171.006L155.658 172.548L158.256 171.485L157.519 174.197L159.333 176.344L156.522 176.476L155.046 178.869L154.049 176.237L151.317 175.566L153.511 173.811L153.305 171.006Z" fill="#E0E0E0"/>
<path id="Vector_10" d="M98.6582 168.197L101.011 169.739L103.61 168.676L102.872 171.388L104.687 173.534L101.882 173.667L100.4 176.053L99.4026 173.428L96.6709 172.757L98.8642 170.995L98.6582 168.197Z" fill="#E0E0E0"/>
<path id="Vector_11" d="M26.5434 64.3115L25.9386 67.0565L27.8528 69.1102L25.0546 69.3827L23.6854 71.8352L22.5688 69.2564L19.8105 68.7181L21.9175 66.8571L21.5719 64.0656L23.9978 65.4945L26.5434 64.3115Z" fill="#00008D"/>
<path id="Vector_12" d="M165.513 9.08205L164.901 11.827L166.816 13.8874L164.017 14.1533L162.655 16.6125L161.532 14.0336L158.773 13.4953L160.88 11.6343L160.541 8.84277L162.961 10.2718L165.513 9.08205Z" fill="#00008D"/>
<path id="Vector_13" d="M45.717 121.526L49.3991 123.946L53.48 122.277L52.3236 126.531L55.1616 129.894L50.7616 130.1L48.442 133.849L46.8868 129.728L42.6064 128.678L46.0427 125.92L45.717 121.526Z" fill="#E0E0E0"/>
<path id="Vector_14" d="M72.8117 192.804L76.4938 195.217L80.5748 193.555L79.4116 197.803L82.2563 201.166L77.8564 201.378L75.5368 205.12L73.9748 200.999L69.7012 199.949L73.1374 197.198L72.8117 192.804Z" fill="#00008D"/>
<path id="Vector_15" d="M70.8693 36.7634L74.5515 39.1761L78.6324 37.5145L77.4693 41.7616L80.3139 45.1247L75.914 45.3373L73.5944 49.0793L72.0325 44.9585L67.7588 43.9084L71.1884 41.1567L70.8693 36.7634Z" fill="#E0E0E0"/>
<path id="Vector_16" d="M135.901 16.4915L139.583 18.9108L143.664 17.2425L142.5 21.4962L145.345 24.8593L140.945 25.0654L138.626 28.814L137.064 24.6932L132.79 23.643L136.226 20.8848L135.901 16.4915Z" fill="#E0E0E0"/>
<path id="Vector_17" d="M27.8278 15.5831L35.0192 20.2955L42.975 17.0454L40.7153 25.3401L46.2584 31.9068L37.6712 32.3189L33.1449 39.6233L30.1009 31.5811L21.7529 29.534L28.4592 24.1504L27.8278 15.5831Z" fill="#00008D"/>
<path id="Vector_18" d="M94.3845 0.000244141L98.4587 2.67211L102.965 0.83105L101.682 5.53008L104.826 9.24544L99.9608 9.47807L97.3953 13.6188L95.6739 9.06599L90.9482 7.90286L94.7434 4.85879L94.3845 0.000244141Z" fill="#00008D"/>
</g>
</g>
<g id="Group 1000002965">
<path id="Vector_19" d="M119.165 196.556C170.412 196.556 211.956 155.012 211.956 103.764C211.956 52.5171 170.412 10.973 119.165 10.973C67.9172 10.973 26.373 52.5171 26.373 103.764C26.373 155.012 67.9172 196.556 119.165 196.556Z" fill="#00008D"/>
<path id="Vector_20" opacity="0.2" d="M196.587 121.961C206.68 79.1954 180.194 36.3449 137.429 26.2514C94.6641 16.158 51.8137 42.6436 41.7202 85.4088C31.6267 128.174 58.1123 171.024 100.877 181.118C143.643 191.211 186.493 164.726 196.587 121.961Z" fill="#00008D"/>
<path id="Vector_21" d="M109.284 141.744C108.206 141.768 107.134 141.578 106.13 141.186C105.125 140.794 104.208 140.208 103.43 139.461L69.6502 106.384C68.0975 104.878 67.2067 102.817 67.1738 100.654C67.1409 98.4912 67.9685 96.4038 69.4746 94.8512C70.9807 93.2985 73.0419 92.4077 75.2048 92.3747C77.3676 92.3418 79.455 93.1694 81.0077 94.6755L108.699 121.781L156.587 68.331C158.056 66.851 160.036 65.9911 162.12 65.9286C164.204 65.8661 166.232 66.6057 167.787 67.995C169.341 69.3842 170.303 71.3171 170.474 73.3948C170.645 75.4726 170.012 77.5367 168.706 79.1615L115.139 138.934C114.4 139.761 113.499 140.427 112.491 140.89C111.484 141.353 110.393 141.604 109.284 141.627V141.744Z" fill="white"/>
</g>
</g>
</svg>
