<svg width="219" height="47" viewBox="0 0 219 47" fill="none" xmlns="http://www.w3.org/2000/svg">
<g id="Group">
<path id="Vector" d="M15.922 33.2629C12.9022 33.2629 10.2126 32.5471 7.85308 31.1156C5.49356 29.684 3.6436 27.7437 2.30543 25.2925C0.965046 22.8413 0.295959 20.0679 0.295959 16.97C0.295959 13.8721 0.956183 10.9698 2.27663 8.50015C3.59707 6.03054 5.40936 4.09951 7.71128 2.70705C10.0132 1.31459 12.6563 0.619507 15.6384 0.619507C17.865 0.619507 19.9033 1.06141 21.7532 1.94292C23.6032 2.82443 25.2626 4.14784 26.7359 5.91316C27.2632 6.5415 27.4515 7.18824 27.3008 7.8534C27.1502 8.52086 26.7359 9.10777 26.0557 9.61872C25.5262 10.01 24.9413 10.1389 24.301 10.0008C23.6585 9.86499 23.0736 9.52205 22.5464 8.97197C20.6964 6.93277 18.3945 5.91316 15.6384 5.91316C13.7131 5.91316 12.0138 6.37348 10.5427 7.29642C9.07161 8.21705 7.91954 9.50134 7.08872 11.1493C6.25791 12.7949 5.84361 14.7375 5.84361 16.9723C5.84361 19.0898 6.26898 20.9725 7.11753 22.6181C7.96607 24.2637 9.14694 25.5687 10.6557 26.5285C12.1645 27.4906 13.9191 27.9693 15.922 27.9693C17.2424 27.9693 18.4033 27.8036 19.4048 27.4698C20.404 27.1384 21.3212 26.6183 22.152 25.9117C22.7546 25.403 23.3772 25.1176 24.0197 25.0578C24.66 24.9979 25.2271 25.1867 25.719 25.6171C26.3615 26.1671 26.7182 26.784 26.7957 27.4698C26.871 28.1557 26.6451 28.7748 26.1155 29.3226C23.3971 31.951 20.0007 33.2629 15.9242 33.2629H15.922Z" fill="#00008D"/>
<path id="Vector_2" d="M46.6093 33.2629C43.8532 33.2629 41.3807 32.5471 39.1918 31.1155C37.0028 29.6839 35.2747 27.7437 34.0119 25.2925C32.7468 22.8413 32.1154 20.0679 32.1154 16.97C32.1154 13.872 32.8044 11.0871 34.1825 8.61751C35.5605 6.1479 37.4282 4.19616 39.7877 2.76457C42.145 1.33298 44.7992 0.617188 47.7437 0.617188C50.6881 0.617188 53.329 1.33298 55.6708 2.76457C58.0103 4.19616 59.8691 6.1456 61.2472 8.61751C62.6252 11.0871 63.3143 13.872 63.3143 16.97H61.1054C61.1054 20.0679 60.474 22.8413 59.2089 25.2925C57.9439 27.7437 56.218 29.6839 54.0291 31.1155C51.8401 32.5471 49.3676 33.2629 46.6115 33.2629H46.6093ZM47.7414 27.9693C49.6667 27.9693 51.3837 27.4905 52.8947 26.5285C54.4035 25.5687 55.5932 24.2545 56.4617 22.5882C57.3302 20.9218 57.7644 19.0506 57.7644 16.9723C57.7644 14.8939 57.3302 12.9629 56.4617 11.2966C55.5932 9.63021 54.4035 8.316 52.8947 7.35624C51.3837 6.39648 49.6667 5.91545 47.7414 5.91545C45.8162 5.91545 44.1457 6.39648 42.617 7.35624C41.0883 8.3183 39.8808 9.63021 38.9924 11.2966C38.1062 12.9629 37.6631 14.8548 37.6631 16.9723C37.6631 19.0897 38.1062 20.9241 38.9924 22.5882C39.8786 24.2545 41.0883 25.5687 42.617 26.5285C44.1457 27.4905 45.8538 27.9693 47.7414 27.9693ZM60.423 33.0857C59.5922 33.0857 58.9032 32.8026 58.356 32.2341C57.8087 31.6656 57.534 30.9498 57.534 30.0867V21.0875L58.6107 14.8525L63.3098 16.97V30.0867C63.3098 30.9498 63.0351 31.6656 62.4901 32.2341C61.9429 32.8026 61.2538 33.0857 60.423 33.0857Z" fill="#00008D"/>
<path id="Vector_3" d="M72.5972 33.088C71.7664 33.088 71.0773 32.8049 70.5301 32.2364C69.9829 31.6679 69.7081 30.9521 69.7081 30.089V3.91302C69.7081 3.0108 69.9806 2.2858 70.5301 1.73802C71.0773 1.19024 71.7664 0.91405 72.5972 0.91405C73.428 0.91405 74.1635 1.19024 74.693 1.73802C75.2203 2.2881 75.4862 3.0131 75.4862 3.91302V30.089C75.4862 30.9521 75.2225 31.6679 74.693 32.2364C74.1635 32.8049 73.4656 33.088 72.5972 33.088ZM91.5088 33.088C90.678 33.088 89.9889 32.8049 89.4417 32.2364C88.8945 31.6679 88.622 30.9521 88.622 30.089V13.2667C88.622 10.7971 88.0371 8.96501 86.8673 7.76818C85.6975 6.57135 84.1688 5.97524 82.2812 5.97524C80.3935 5.97524 78.6943 6.68183 77.4115 8.0927C76.1287 9.50358 75.4862 11.308 75.4862 13.5037H71.9192C71.9192 10.9559 72.4088 8.70953 73.3925 6.76929C74.374 4.82905 75.7321 3.31 77.4691 2.20984C79.206 1.11199 81.1867 0.564209 83.4133 0.564209C85.6399 0.564209 87.4699 1.05445 89.1315 2.03492C90.791 3.0154 92.0848 4.4562 93.0109 6.35731C93.9348 8.25842 94.3978 10.5623 94.3978 13.269V30.0913C94.3978 30.9544 94.1342 31.6702 93.6047 32.2387C93.0752 32.8072 92.3773 33.0903 91.5088 33.0903V33.088ZM110.363 33.088C109.532 33.088 108.843 32.8049 108.296 32.2364C107.748 31.6679 107.474 30.9521 107.474 30.089V13.2667C107.474 10.7971 106.889 8.96501 105.719 7.76818C104.549 6.57135 103.021 5.97524 101.133 5.97524C99.2454 5.97524 97.5571 6.68183 96.2921 8.0927C95.027 9.50358 94.3956 11.308 94.3956 13.5037H89.6965C89.6965 10.9559 90.2238 8.70953 91.2828 6.76929C92.3396 4.82905 93.8218 3.31 95.7271 2.20984C97.6325 1.11199 99.8125 0.564209 102.267 0.564209C104.419 0.564209 106.324 1.05445 107.986 2.03492C109.647 3.0154 110.939 4.4562 111.865 6.35731C112.789 8.25842 113.252 10.5623 113.252 13.269V30.0913C113.252 30.9544 112.988 31.6702 112.459 32.2387C111.929 32.8072 111.231 33.0903 110.363 33.0903V33.088Z" fill="#00008D"/>
<path id="Vector_4" d="M123.499 46.7916C122.668 46.7916 121.979 46.5062 121.431 45.94C120.884 45.3715 120.609 44.6557 120.609 43.7926V16.9722C120.647 13.8742 121.345 11.0893 122.705 8.61971C124.063 6.1501 125.913 4.19836 128.253 2.76677C130.593 1.33518 133.236 0.619385 136.18 0.619385C139.125 0.619385 141.823 1.33518 144.163 2.76677C146.502 4.19836 148.361 6.1478 149.739 8.61971C151.117 11.0893 151.806 13.8742 151.806 16.9722C151.806 20.0701 151.172 22.8435 149.91 25.2947C148.645 27.7459 146.919 29.6862 144.73 31.1177C142.541 32.5493 140.068 33.2651 137.312 33.2651C135.083 33.2651 133.039 32.7864 131.169 31.8243C129.301 30.8646 127.706 29.5596 126.385 27.9139V43.7949C126.385 44.658 126.122 45.3738 125.592 45.9423C125.063 46.5108 124.365 46.7939 123.496 46.7939L123.499 46.7916ZM136.182 27.9692C138.108 27.9692 139.825 27.4904 141.336 26.5284C142.844 25.5686 144.043 24.2544 144.931 22.5881C145.818 20.9217 146.263 19.0505 146.263 16.9722C146.263 14.8938 145.82 12.9628 144.931 11.2965C144.045 9.6301 142.847 8.3159 141.336 7.35613C139.827 6.39637 138.108 5.91534 136.182 5.91534C134.257 5.91534 132.587 6.39637 131.058 7.35613C129.529 8.3182 128.331 9.6301 127.462 11.2965C126.594 12.9628 126.159 14.8547 126.159 16.9722C126.159 19.0896 126.594 20.924 127.462 22.5881C128.331 24.2544 129.529 25.5686 131.058 26.5284C132.587 27.4904 134.295 27.9692 136.182 27.9692Z" fill="#00008D"/>
<path id="Vector_5" d="M171.227 33.3227C168.624 33.3227 166.291 32.745 164.235 31.5873C162.177 30.4319 160.555 28.7356 159.366 26.5008C158.176 24.2659 157.582 21.5201 157.582 18.2657V3.7956C157.582 2.93481 157.855 2.21671 158.402 1.64822C158.949 1.07973 159.638 0.796631 160.469 0.796631C161.3 0.796631 161.986 1.08203 162.536 1.64822C163.083 2.21671 163.358 2.9325 163.358 3.7956V18.2657C163.358 20.4614 163.754 22.2751 164.548 23.7066C165.341 25.1382 166.415 26.197 167.776 26.8828C169.134 27.5687 170.662 27.9116 172.362 27.9116C174.061 27.9116 175.428 27.5779 176.693 26.9128C177.958 26.2453 178.966 25.3454 179.722 24.2061C180.475 23.0691 180.854 21.794 180.854 20.3832H184.421C184.421 22.8159 183.845 25.0116 182.695 26.9726C181.543 28.9336 179.979 30.4825 177.996 31.6195C176.013 32.7565 173.757 33.325 171.23 33.325L171.227 33.3227ZM183.741 33.0281C182.91 33.0281 182.221 32.7427 181.674 32.1765C181.126 31.608 180.854 30.8922 180.854 30.0291V3.7956C180.854 2.89338 181.126 2.16838 181.674 1.6206C182.221 1.07282 182.91 0.796631 183.741 0.796631C184.571 0.796631 185.307 1.07282 185.834 1.6206C186.364 2.17068 186.627 2.89568 186.627 3.7956V30.0291C186.627 30.8922 186.364 31.608 185.834 32.1765C185.305 32.745 184.607 33.0281 183.741 33.0281Z" fill="#00008D"/>
<path id="Vector_6" d="M205.878 33.2629C203.235 33.2629 200.791 32.8417 198.547 31.9993C196.3 31.157 194.555 30.089 193.309 28.7932C192.744 28.1672 192.507 27.4514 192.603 26.6459C192.696 25.8426 193.064 25.1866 193.706 24.6757C194.462 24.0497 195.206 23.785 195.941 23.8816C196.677 23.9806 197.308 24.3236 197.838 24.9105C198.478 25.6562 199.508 26.3512 200.922 26.998C202.338 27.6447 203.913 27.9693 205.65 27.9693C207.839 27.9693 209.509 27.5964 210.661 26.8507C211.811 26.1073 212.407 25.1452 212.445 23.9691C212.482 22.793 211.944 21.7734 210.832 20.9103C209.718 20.0495 207.69 19.3429 204.746 18.7928C200.933 18.008 198.168 16.8319 196.451 15.2645C194.734 13.6971 193.874 11.7753 193.874 9.50132C193.874 7.50124 194.439 5.8441 195.574 4.52989C196.706 3.21568 198.159 2.23751 199.934 1.58846C201.708 0.941712 203.556 0.617188 205.481 0.617188C207.974 0.617188 210.181 1.02917 212.106 1.85314C214.031 2.67711 215.56 3.81409 216.692 5.2641C217.219 5.89243 217.465 6.54838 217.428 7.23425C217.39 7.92013 217.069 8.49783 216.466 8.96965C215.861 9.40235 215.146 9.53815 214.315 9.38164C213.484 9.22513 212.786 8.87298 212.219 8.32291C211.275 7.38156 210.256 6.73481 209.161 6.38267C208.067 6.03052 206.802 5.8533 205.368 5.8533C203.707 5.8533 202.302 6.14791 201.15 6.73481C199.998 7.32172 199.424 8.18711 199.424 9.3218C199.424 10.0284 199.604 10.6659 199.963 11.2344C200.322 11.8029 201.028 12.3139 202.085 12.7627C203.142 13.2138 204.691 13.6557 206.729 14.0861C209.56 14.673 211.796 15.4187 213.44 16.3209C215.081 17.2231 216.26 18.2727 216.978 19.4672C217.693 20.664 218.055 22.045 218.055 23.6147C218.055 25.4191 217.591 27.0463 216.668 28.4963C215.742 29.9463 214.383 31.104 212.591 31.9671C210.796 32.8302 208.561 33.2606 205.88 33.2606L205.878 33.2629Z" fill="#00008D"/>
</g>
</svg>
