<svg width="70" height="78" viewBox="0 0 70 78" fill="none" xmlns="http://www.w3.org/2000/svg">
<g id="Group">
<path id="Vector" d="M55.1746 63.6683C54.3128 71.8229 49.1196 78.1799 43.5276 77.3168C38.1572 76.4859 34.8783 69.4453 35.7911 61.6867V61.6729C35.8553 61.1527 35.9306 60.6325 36.0326 60.1124C37.5236 52.3146 42.7854 47.2557 47.7947 48.3282C49.9127 48.7817 51.725 50.2846 53.0388 52.4573C53.0632 52.5033 53.0898 52.5425 53.1142 52.5885C54.8002 55.4333 55.631 59.3989 55.1746 63.6683Z" fill="#EF072F"/>
<path id="Vector_2" d="M30.961 58.11C30.2565 58.9869 29.357 59.7625 28.2913 60.4231C26.9355 61.2586 25.2849 61.8915 23.4017 62.2483C15.4702 63.7443 6.69453 59.751 4.25968 53.4539C1.95776 47.5066 6.35112 42.0794 13.7266 40.9977C13.9171 40.9655 14.1076 40.9378 14.2982 40.9194C15.3948 40.7951 16.4982 40.7675 17.5949 40.8412C23.8404 41.2301 29.7624 44.6089 31.9425 49.3064C33.4003 52.455 32.9373 55.6496 30.9588 58.1123L30.961 58.11Z" fill="#F82548"/>
<path id="Vector_3" d="M20.6768 33.9687C19.1614 36.0033 16.7066 36.604 13.9948 35.9043C13.9505 35.8974 13.8995 35.8836 13.8552 35.8721C11.1545 35.1609 8.20567 33.1769 5.67555 30.0813C0.646339 23.9429 -0.501297 16.159 2.87293 12.7319C6.08764 9.46363 12.3465 11.3164 17.0633 16.8218C18.2929 18.258 19.3209 19.8254 20.1185 21.4319C20.278 21.761 20.4287 22.0902 20.5749 22.4193C22.4824 26.7854 22.6863 31.2712 20.6768 33.9663V33.9687Z" fill="#FDEE00"/>
<path id="Vector_4" d="M37.0911 12.2531C37.0225 12.5569 36.9383 12.8584 36.8386 13.1484C36.4708 14.3199 35.9125 15.3879 35.2146 16.3223C33.0345 19.2591 29.5141 20.8288 26.0402 19.9243C25.5129 19.7862 25.0122 19.6021 24.5447 19.365C23.4103 18.8057 22.4466 17.9887 21.6978 16.9875C19.8279 14.5248 19.2186 10.9665 20.3729 7.52793C22.0766 2.43682 27.0172 -0.394139 31.4172 0.929274C35.7485 2.24118 38.2831 7.18729 37.0911 12.2531Z" fill="#FFF45C"/>
<path id="Vector_5" d="M55.2898 27.7313C55.0616 27.7452 54.8201 27.7636 54.5853 27.7636C54.5343 27.7705 54.49 27.7705 54.4391 27.7705C49.0443 27.8556 42.9051 24.615 40.6475 20.3202C40.2487 19.5561 39.9939 18.8127 39.8876 18.113C39.8189 17.6527 39.8056 17.2039 39.8566 16.7758C40.1557 14.129 42.6969 12.2693 46.6161 12.1657C51.9178 12.0345 57.9728 15.1762 60.3678 19.2661C62.8226 23.4619 60.6536 27.2825 55.2898 27.7313Z" fill="#00008D"/>
<path id="Vector_6" d="M69.535 54.2295C67.9177 58.3264 62.6182 57.3252 57.5513 52.0361C57.2588 51.7392 56.9753 51.4308 56.6895 51.1017C56.1068 50.4365 55.5551 49.7437 55.0544 49.0325C50.9912 43.4144 49.2963 36.8134 51.1352 33.5267C52.1299 31.7476 53.9887 31.2482 56.2087 31.8811C57.4516 32.2309 58.8141 32.9283 60.1966 33.9617C61.2623 34.7512 62.339 35.7409 63.3914 36.8986C68.3431 42.3717 71.159 50.0982 69.535 54.2295Z" fill="#00008D"/>
<path id="Vector_7" d="M39.7807 41.9528C34.9687 41.0506 29.6293 36.5187 27.9942 31.9731C26.4035 27.554 28.9713 24.898 33.6128 25.9199C38.159 26.9211 43.1749 31.1238 44.9362 35.437C46.7441 39.8629 44.4931 42.8412 39.7807 41.9505V41.9528Z" fill="#00008D"/>
<g id="Vector_8" style="mix-blend-mode:multiply" opacity="0.08">
<path d="M36.8387 13.1485C36.4709 14.32 35.9126 15.388 35.2147 16.3224C33.0347 19.2592 29.5142 20.8289 26.0403 19.9244C25.513 19.7863 25.0123 19.6022 24.5448 19.3651C23.4105 18.8058 22.4467 17.9888 21.6979 16.9876C25.2161 14.4512 29.4965 12.969 34.1003 12.969C35.0264 12.969 35.9392 13.0288 36.8387 13.1462V13.1485Z" fill="#EF072F"/>
</g>
<g id="Vector_9" style="mix-blend-mode:multiply" opacity="0.23">
<path d="M54.5851 27.7635C54.5341 27.7704 54.4898 27.7704 54.4389 27.7704C49.0441 27.8555 42.9049 24.6149 40.6473 20.3201C40.2485 19.556 39.9937 18.8126 39.8874 18.1129C45.9867 19.0819 51.2552 22.6839 54.5851 27.7635Z" fill="#EF072F"/>
</g>
<g id="Vector_10" style="mix-blend-mode:multiply" opacity="0.23">
<path d="M60.9524 39.8837C60.9524 44.3557 59.7095 48.5262 57.5539 52.0361C57.2614 51.7392 56.9778 51.4308 56.692 51.1017C56.1093 50.4365 55.5577 49.7437 55.057 49.0325C50.9937 43.4144 49.2988 36.8134 51.1377 33.5267C52.1325 31.7476 53.9913 31.2482 56.2112 31.8811C57.4542 32.2309 58.8167 32.9283 60.1992 33.9617C60.6932 35.8513 60.9547 37.8353 60.9547 39.8837H60.9524Z" fill="#EF072F"/>
</g>
<g id="Vector_11" style="mix-blend-mode:multiply" opacity="0.25">
<path d="M53.1139 52.5908C49.1703 58.0778 42.8805 61.6337 35.7908 61.6867V61.6729C35.8551 61.1527 35.9304 60.6325 36.0323 60.1124C37.5234 52.3146 42.7852 47.2557 47.7945 48.3282C49.9125 48.7817 51.7248 50.2846 53.0386 52.4573C53.063 52.5033 53.0896 52.5425 53.1139 52.5885V52.5908Z" fill="#0A55CC"/>
</g>
<g id="Vector_12" style="mix-blend-mode:multiply" opacity="0.23">
<path d="M20.6764 33.9686C19.161 36.0032 16.7062 36.604 13.9944 35.9043C14.3046 30.2861 16.5822 25.2203 20.1203 21.4319C20.2799 21.761 20.4305 22.0901 20.5767 22.4193C22.4843 26.7854 22.6881 31.2712 20.6786 33.9663L20.6764 33.9686Z" fill="#EF072F"/>
</g>
<g id="Vector_13" style="mix-blend-mode:multiply" opacity="0.17">
<path d="M30.961 58.11C24.0242 55.2054 18.8576 48.7103 17.5948 40.8389C23.8403 41.2278 29.7624 44.6066 31.9425 49.3041C33.4003 52.4527 32.9372 55.6473 30.9588 58.11H30.961Z" fill="#0A55CC"/>
</g>
</g>
</svg>
