<svg width="24" height="25" viewBox="0 0 24 25" fill="none" xmlns="http://www.w3.org/2000/svg">
<g id="linkedin black.1">
<path id="LinkedIn" fill-rule="evenodd" clip-rule="evenodd" d="M5.11877 8.37674H5.09337C3.82338 8.37674 3 7.54585 3 6.49264C3 5.41894 3.84772 4.60547 5.14311 4.60547C6.43744 4.60547 7.2333 5.41689 7.2587 6.48957C7.2587 7.54278 6.43744 8.37674 5.11877 8.37674ZM21 20.6055H17.0218V14.9808C17.0218 13.5086 16.3995 12.5035 15.031 12.5035C13.9844 12.5035 13.4023 13.1818 13.1313 13.8354C13.0419 14.042 13.0435 14.32 13.0452 14.6066V14.6067C13.0454 14.6456 13.0456 14.6846 13.0456 14.7237V20.6055H9.10442C9.10442 20.6055 9.15522 10.642 9.10442 9.73629H13.0456V11.4421C13.2785 10.6963 14.5379 9.63179 16.5476 9.63179C19.041 9.63179 21 11.1952 21 14.5618V20.6055ZM6.96237 9.73629H3.45402V20.6055H6.96237V9.73629Z" fill="white"/>
</g>
</svg>
