<svg width="302" height="78" viewBox="0 0 302 78" fill="none" xmlns="http://www.w3.org/2000/svg">
<g clip-path="url(#clip0_2224_20397)">
<path d="M98.9219 55.2629C95.9022 55.2629 93.2125 54.5471 90.853 53.1156C88.4935 51.684 86.6435 49.7437 85.3054 47.2925C83.965 44.8413 83.2959 42.0679 83.2959 38.97C83.2959 35.8721 83.9561 32.9698 85.2766 30.5001C86.597 28.0305 88.4093 26.0995 90.7112 24.707C93.0131 23.3146 95.6562 22.6195 98.6383 22.6195C100.865 22.6195 102.903 23.0614 104.753 23.9429C106.603 24.8244 108.263 26.1478 109.736 27.9132C110.263 28.5415 110.451 29.1882 110.301 29.8534C110.15 30.5209 109.736 31.1078 109.056 31.6187C108.526 32.01 107.941 32.1389 107.301 32.0008C106.658 31.865 106.074 31.5221 105.546 30.972C103.696 28.9328 101.394 27.9132 98.6383 27.9132C96.713 27.9132 95.0137 28.3735 93.5426 29.2964C92.0715 30.2171 90.9195 31.5013 90.0887 33.1493C89.2578 34.7949 88.8435 36.7375 88.8435 38.9723C88.8435 41.0898 89.2689 42.9725 90.1175 44.6181C90.966 46.2637 92.1469 47.5687 93.6556 48.5285C95.1644 49.4906 96.9191 49.9693 98.9219 49.9693C100.242 49.9693 101.403 49.8036 102.405 49.4698C103.404 49.1384 104.321 48.6183 105.152 47.9117C105.755 47.403 106.377 47.1176 107.02 47.0578C107.66 46.9979 108.227 47.1867 108.719 47.6171C109.361 48.1671 109.718 48.784 109.796 49.4698C109.871 50.1557 109.645 50.7748 109.115 51.3226C106.397 53.951 103.001 55.2629 98.9241 55.2629H98.9219Z" fill="#00008D"/>
<path d="M129.609 55.2629C126.853 55.2629 124.381 54.5471 122.192 53.1155C120.003 51.6839 118.275 49.7437 117.012 47.2925C115.747 44.8413 115.115 42.0679 115.115 38.97C115.115 35.872 115.804 33.0871 117.182 30.6175C118.56 28.1479 120.428 26.1962 122.788 24.7646C125.145 23.333 127.799 22.6172 130.743 22.6172C133.688 22.6172 136.329 23.333 138.671 24.7646C141.01 26.1962 142.869 28.1456 144.247 30.6175C145.625 33.0871 146.314 35.872 146.314 38.97H144.105C144.105 42.0679 143.474 44.8413 142.209 47.2925C140.944 49.7437 139.218 51.6839 137.029 53.1155C134.84 54.5471 132.367 55.2629 129.611 55.2629H129.609ZM130.741 49.9693C132.667 49.9693 134.384 49.4905 135.895 48.5285C137.403 47.5687 138.593 46.2545 139.462 44.5882C140.33 42.9218 140.764 41.0506 140.764 38.9723C140.764 36.8939 140.33 34.9629 139.462 33.2966C138.593 31.6302 137.403 30.316 135.895 29.3562C134.384 28.3965 132.667 27.9154 130.741 27.9154C128.816 27.9154 127.145 28.3965 125.617 29.3562C124.088 30.3183 122.881 31.6302 121.992 33.2966C121.106 34.9629 120.663 36.8548 120.663 38.9723C120.663 41.0897 121.106 42.9241 121.992 44.5882C122.878 46.2545 124.088 47.5687 125.617 48.5285C127.145 49.4905 128.854 49.9693 130.741 49.9693ZM143.423 55.0857C142.592 55.0857 141.903 54.8026 141.356 54.2341C140.809 53.6656 140.534 52.9498 140.534 52.0867V43.0875L141.611 36.8525L146.31 38.97V52.0867C146.31 52.9498 146.035 53.6656 145.49 54.2341C144.943 54.8026 144.254 55.0857 143.423 55.0857Z" fill="#00008D"/>
<path d="M155.597 55.088C154.766 55.088 154.077 54.8049 153.53 54.2364C152.983 53.6679 152.708 52.9521 152.708 52.089V25.913C152.708 25.0108 152.981 24.2858 153.53 23.738C154.077 23.1902 154.766 22.914 155.597 22.914C156.428 22.914 157.163 23.1902 157.693 23.738C158.22 24.2881 158.486 25.0131 158.486 25.913V52.089C158.486 52.9521 158.222 53.6679 157.693 54.2364C157.163 54.8049 156.466 55.088 155.597 55.088ZM174.509 55.088C173.678 55.088 172.989 54.8049 172.442 54.2364C171.894 53.6679 171.622 52.9521 171.622 52.089V35.2667C171.622 32.7971 171.037 30.965 169.867 29.7682C168.697 28.5714 167.169 27.9752 165.281 27.9752C163.393 27.9752 161.694 28.6818 160.411 30.0927C159.129 31.5036 158.486 33.308 158.486 35.5037H154.919C154.919 32.9559 155.409 30.7095 156.392 28.7693C157.374 26.8291 158.732 25.31 160.469 24.2098C162.206 23.112 164.187 22.5642 166.413 22.5642C168.64 22.5642 170.47 23.0544 172.131 24.0349C173.791 25.0154 175.085 26.4562 176.011 28.3573C176.935 30.2584 177.398 32.5623 177.398 35.269V52.0913C177.398 52.9544 177.134 53.6702 176.605 54.2387C176.075 54.8072 175.377 55.0903 174.509 55.0903V55.088ZM193.363 55.088C192.532 55.088 191.843 54.8049 191.296 54.2364C190.748 53.6679 190.474 52.9521 190.474 52.089V35.2667C190.474 32.7971 189.889 30.965 188.719 29.7682C187.549 28.5714 186.02 27.9752 184.133 27.9752C182.245 27.9752 180.557 28.6818 179.292 30.0927C178.027 31.5036 177.395 33.308 177.395 35.5037H172.696C172.696 32.9559 173.224 30.7095 174.283 28.7693C175.339 26.8291 176.822 25.31 178.727 24.2098C180.632 23.112 182.812 22.5642 185.267 22.5642C187.418 22.5642 189.324 23.0544 190.985 24.0349C192.647 25.0154 193.939 26.4562 194.865 28.3573C195.789 30.2584 196.252 32.5623 196.252 35.269V52.0913C196.252 52.9544 195.988 53.6702 195.459 54.2387C194.929 54.8072 194.231 55.0903 193.363 55.0903V55.088Z" fill="#00008D"/>
<path d="M206.498 68.7916C205.668 68.7916 204.979 68.5062 204.431 67.94C203.884 67.3715 203.609 66.6557 203.609 65.7926V38.9722C203.647 35.8742 204.345 33.0893 205.705 30.6197C207.063 28.1501 208.913 26.1984 211.253 24.7668C213.592 23.3352 216.236 22.6194 219.18 22.6194C222.124 22.6194 224.823 23.3352 227.162 24.7668C229.502 26.1984 231.361 28.1478 232.739 30.6197C234.117 33.0893 234.806 35.8742 234.806 38.9722C234.806 42.0701 234.172 44.8435 232.91 47.2947C231.644 49.7459 229.919 51.6862 227.73 53.1177C225.541 54.5493 223.068 55.2651 220.312 55.2651C218.083 55.2651 216.038 54.7864 214.169 53.8243C212.301 52.8646 210.706 51.5596 209.385 49.9139V65.7949C209.385 66.658 209.122 67.3738 208.592 67.9423C208.063 68.5108 207.365 68.7939 206.496 68.7939L206.498 68.7916ZM219.182 49.9692C221.108 49.9692 222.825 49.4904 224.336 48.5284C225.844 47.5686 227.043 46.2544 227.931 44.5881C228.817 42.9217 229.263 41.0505 229.263 38.9722C229.263 36.8938 228.82 34.9628 227.931 33.2965C227.045 31.6301 225.846 30.3159 224.336 29.3561C222.827 28.3964 221.108 27.9153 219.182 27.9153C217.257 27.9153 215.586 28.3964 214.058 29.3561C212.529 30.3182 211.33 31.6301 210.462 33.2965C209.593 34.9628 209.159 36.8547 209.159 38.9722C209.159 41.0896 209.593 42.924 210.462 44.5881C211.33 46.2544 212.529 47.5686 214.058 48.5284C215.586 49.4904 217.295 49.9692 219.182 49.9692Z" fill="#00008D"/>
<path d="M254.227 55.3227C251.624 55.3227 249.291 54.745 247.235 53.5873C245.177 52.4319 243.555 50.7356 242.366 48.5008C241.176 46.2659 240.582 43.5201 240.582 40.2657V25.7956C240.582 24.9348 240.855 24.2167 241.402 23.6482C241.949 23.0797 242.638 22.7966 243.469 22.7966C244.3 22.7966 244.986 23.082 245.536 23.6482C246.083 24.2167 246.358 24.9325 246.358 25.7956V40.2657C246.358 42.4614 246.754 44.2751 247.548 45.7066C248.341 47.1382 249.415 48.197 250.776 48.8828C252.134 49.5687 253.662 49.9116 255.362 49.9116C257.061 49.9116 258.428 49.5779 259.693 48.9128C260.958 48.2453 261.966 47.3454 262.722 46.2061C263.475 45.0691 263.854 43.794 263.854 42.3832H267.421C267.421 44.8159 266.845 47.0116 265.695 48.9726C264.543 50.9336 262.979 52.4825 260.996 53.6195C259.013 54.7565 256.757 55.325 254.23 55.325L254.227 55.3227ZM266.741 55.0281C265.91 55.0281 265.221 54.7427 264.674 54.1765C264.126 53.608 263.854 52.8922 263.854 52.0291V25.7956C263.854 24.8934 264.126 24.1684 264.674 23.6206C265.221 23.0728 265.91 22.7966 266.741 22.7966C267.571 22.7966 268.307 23.0728 268.834 23.6206C269.364 24.1707 269.627 24.8957 269.627 25.7956V52.0291C269.627 52.8922 269.364 53.608 268.834 54.1765C268.305 54.745 267.607 55.0281 266.741 55.0281Z" fill="#00008D"/>
<path d="M288.878 55.2629C286.235 55.2629 283.791 54.8417 281.547 53.9993C279.3 53.157 277.554 52.089 276.309 50.7932C275.744 50.1672 275.507 49.4514 275.603 48.6459C275.696 47.8426 276.063 47.1866 276.706 46.6757C277.461 46.0497 278.206 45.785 278.941 45.8816C279.677 45.9806 280.308 46.3236 280.838 46.9105C281.478 47.6562 282.508 48.3512 283.922 48.998C285.337 49.6447 286.913 49.9693 288.65 49.9693C290.839 49.9693 292.509 49.5964 293.661 48.8507C294.811 48.1073 295.407 47.1452 295.445 45.9691C295.482 44.793 294.944 43.7734 293.832 42.9103C292.717 42.0495 290.69 41.3429 287.746 40.7928C283.933 40.008 281.168 38.8319 279.451 37.2645C277.734 35.6971 276.874 33.7753 276.874 31.5013C276.874 29.5012 277.439 27.8441 278.574 26.5299C279.706 25.2157 281.159 24.2375 282.934 23.5885C284.708 22.9417 286.556 22.6172 288.481 22.6172C290.974 22.6172 293.18 23.0292 295.106 23.8531C297.031 24.6771 298.56 25.8141 299.692 27.2641C300.219 27.8924 300.465 28.5484 300.427 29.2343C300.39 29.9201 300.068 30.4978 299.466 30.9697C298.861 31.4023 298.145 31.5381 297.315 31.3816C296.484 31.2251 295.786 30.873 295.219 30.3229C294.275 29.3816 293.256 28.7348 292.161 28.3827C291.067 28.0305 289.802 27.8533 288.368 27.8533C286.707 27.8533 285.302 28.1479 284.15 28.7348C282.998 29.3217 282.424 30.1871 282.424 31.3218C282.424 32.0284 282.604 32.6659 282.962 33.2344C283.321 33.8029 284.028 34.3139 285.085 34.7627C286.142 35.2138 287.69 35.6557 289.729 36.0861C292.56 36.673 294.795 37.4187 296.439 38.3209C298.081 39.2231 299.26 40.2727 299.978 41.4672C300.693 42.664 301.054 44.045 301.054 45.6147C301.054 47.4191 300.591 49.0463 299.667 50.4963C298.741 51.9463 297.383 53.104 295.591 53.9671C293.796 54.8302 291.561 55.2606 288.88 55.2606L288.878 55.2629Z" fill="#00008D"/>
<path d="M55.1746 63.6683C54.3128 71.8229 49.1196 78.1799 43.5276 77.3168C38.1572 76.4859 34.8783 69.4453 35.7911 61.6867V61.6729C35.8553 61.1527 35.9306 60.6325 36.0326 60.1124C37.5236 52.3146 42.7854 47.2557 47.7947 48.3282C49.9127 48.7817 51.725 50.2846 53.0388 52.4573C53.0632 52.5033 53.0898 52.5425 53.1142 52.5885C54.8002 55.4333 55.631 59.3989 55.1746 63.6683Z" fill="#EF072F"/>
<path d="M30.9608 58.11C30.2563 58.9869 29.3568 59.7625 28.2911 60.4231C26.9352 61.2586 25.2847 61.8915 23.4015 62.2483C15.4699 63.7443 6.69428 59.751 4.25944 53.4539C1.95752 47.5066 6.35088 42.0794 13.7263 40.9977C13.9169 40.9655 14.1074 40.9378 14.2979 40.9194C15.3946 40.7951 16.4979 40.7675 17.5946 40.8412C23.8401 41.2301 29.7622 44.6089 31.9423 49.3064C33.4001 52.455 32.937 55.6496 30.9586 58.1123L30.9608 58.11Z" fill="#F82548"/>
<path d="M20.6766 33.9687C19.1612 36.0033 16.7064 36.604 13.9946 35.9043C13.9503 35.8974 13.8994 35.8836 13.855 35.8721C11.1543 35.1609 8.20549 33.1769 5.67537 30.0813C0.646156 23.9429 -0.50148 16.159 2.87275 12.7319C6.08746 9.46363 12.3463 11.3164 17.0631 16.8218C18.2927 18.258 19.3207 19.8254 20.1183 21.4319C20.2778 21.761 20.4285 22.0902 20.5747 22.4193C22.4823 26.7854 22.6861 31.2712 20.6766 33.9663V33.9687Z" fill="#FDEE00"/>
<path d="M37.091 12.2531C37.0223 12.5569 36.9381 12.8584 36.8384 13.1484C36.4706 14.3199 35.9123 15.3879 35.2145 16.3223C33.0344 19.2591 29.5139 20.8288 26.04 19.9243C25.5127 19.7862 25.012 19.6021 24.5445 19.365C23.4102 18.8057 22.4464 17.9887 21.6976 16.9875C19.8277 14.5248 19.2184 10.9665 20.3727 7.52793C22.0765 2.43682 27.0171 -0.394139 31.4171 0.929274C35.7484 2.24118 38.2829 7.18729 37.091 12.2531Z" fill="#FFF45C"/>
<path d="M55.2898 27.7313C55.0616 27.7452 54.8201 27.7636 54.5853 27.7636C54.5343 27.7705 54.49 27.7705 54.4391 27.7705C49.0443 27.8556 42.9051 24.615 40.6475 20.3202C40.2487 19.5561 39.9939 18.8127 39.8876 18.113C39.8189 17.6527 39.8056 17.2039 39.8566 16.7758C40.1557 14.129 42.6969 12.2693 46.6161 12.1657C51.9178 12.0345 57.9728 15.1762 60.3678 19.2661C62.8226 23.4619 60.6536 27.2825 55.2898 27.7313Z" fill="#00008D"/>
<path d="M69.535 54.2295C67.9177 58.3264 62.6182 57.3252 57.5513 52.0361C57.2588 51.7392 56.9753 51.4308 56.6895 51.1017C56.1068 50.4365 55.5551 49.7437 55.0544 49.0325C50.9912 43.4144 49.2963 36.8134 51.1352 33.5267C52.1299 31.7476 53.9887 31.2482 56.2087 31.8811C57.4516 32.2309 58.8141 32.9283 60.1966 33.9617C61.2623 34.7512 62.339 35.7409 63.3914 36.8986C68.3431 42.3717 71.159 50.0982 69.535 54.2295Z" fill="#00008D"/>
<path d="M39.7806 41.9528C34.9685 41.0506 29.6291 36.5187 27.9941 31.9731C26.4034 27.554 28.9711 24.898 33.6126 25.9199C38.1589 26.9211 43.1748 31.1238 44.9361 35.437C46.744 39.8629 44.493 42.8412 39.7806 41.9505V41.9528Z" fill="#00008D"/>
<g style="mix-blend-mode:multiply" opacity="0.08">
<path d="M36.8386 13.1485C36.4708 14.32 35.9125 15.388 35.2146 16.3224C33.0345 19.2592 29.5141 20.8289 26.0402 19.9244C25.5129 19.7863 25.0122 19.6022 24.5447 19.3651C23.4103 18.8058 22.4466 17.9888 21.6978 16.9876C25.216 14.4512 29.4964 12.969 34.1002 12.969C35.0263 12.969 35.9391 13.0288 36.8386 13.1462V13.1485Z" fill="#EF072F"/>
</g>
<g style="mix-blend-mode:multiply" opacity="0.23">
<path d="M54.5849 27.7635C54.534 27.7704 54.4897 27.7704 54.4387 27.7704C49.0439 27.8555 42.9047 24.6149 40.6471 20.3201C40.2483 19.556 39.9936 18.8126 39.8872 18.1129C45.9865 19.0819 51.255 22.6839 54.5849 27.7635Z" fill="#EF072F"/>
</g>
<g style="mix-blend-mode:multiply" opacity="0.23">
<path d="M60.9523 39.8837C60.9523 44.3557 59.7094 48.5262 57.5537 52.0361C57.2613 51.7392 56.9777 51.4308 56.6919 51.1017C56.1092 50.4365 55.5576 49.7437 55.0568 49.0325C50.9936 43.4144 49.2987 36.8134 51.1376 33.5267C52.1324 31.7476 53.9912 31.2482 56.2111 31.8811C57.454 32.2309 58.8166 32.9283 60.199 33.9617C60.6931 35.8513 60.9545 37.8353 60.9545 39.8837H60.9523Z" fill="#EF072F"/>
</g>
<g style="mix-blend-mode:multiply" opacity="0.25">
<path d="M53.1136 52.5908C49.17 58.0778 42.8802 61.6337 35.7905 61.6867V61.6729C35.8548 61.1527 35.9301 60.6325 36.032 60.1124C37.5231 52.3146 42.7849 47.2557 47.7942 48.3282C49.9122 48.7817 51.7245 50.2846 53.0383 52.4573C53.0627 52.5033 53.0893 52.5425 53.1136 52.5885V52.5908Z" fill="#0A55CC"/>
</g>
<g style="mix-blend-mode:multiply" opacity="0.23">
<path d="M20.6761 33.9686C19.1607 36.0032 16.7059 36.604 13.9941 35.9043C14.3043 30.2861 16.5819 25.2203 20.12 21.4319C20.2796 21.761 20.4302 22.0901 20.5764 22.4193C22.484 26.7854 22.6878 31.2712 20.6783 33.9663L20.6761 33.9686Z" fill="#EF072F"/>
</g>
<g style="mix-blend-mode:multiply" opacity="0.17">
<path d="M30.9609 58.11C24.0241 55.2054 18.8576 48.7103 17.5947 40.8389C23.8403 41.2278 29.7623 44.6066 31.9424 49.3041C33.4002 52.4527 32.9372 55.6473 30.9587 58.11H30.9609Z" fill="#0A55CC"/>
</g>
</g>
<defs>
<clipPath id="clip0_2224_20397">
<rect width="300.102" height="76.7902" fill="white" transform="translate(0.94873 0.604858)"/>
</clipPath>
</defs>
</svg>
