<svg width="24" height="25" viewBox="0 0 24 25" fill="none" xmlns="http://www.w3.org/2000/svg">
<g id="material-symbols:favorite-outline">
<path id="Vector" d="M12 21.7616L10.55 20.4616C8.86667 18.945 7.475 17.6366 6.375 16.5366C5.275 15.4366 4.4 14.449 3.75 13.5736C3.1 12.6983 2.646 11.8943 2.388 11.1616C2.13 10.429 2.00067 9.67895 2 8.91162C2 7.34495 2.525 6.03662 3.575 4.98662C4.625 3.93662 5.93333 3.41162 7.5 3.41162C8.36667 3.41162 9.19167 3.59495 9.975 3.96162C10.7583 4.32829 11.4333 4.84495 12 5.51162C12.5667 4.84495 13.2417 4.32829 14.025 3.96162C14.8083 3.59495 15.6333 3.41162 16.5 3.41162C18.0667 3.41162 19.375 3.93662 20.425 4.98662C21.475 6.03662 22 7.34495 22 8.91162C22 9.67829 21.871 10.4283 21.613 11.1616C21.355 11.895 20.9007 12.699 20.25 13.5736C19.5993 14.4483 18.7243 15.436 17.625 16.5366C16.5257 17.6373 15.134 18.9456 13.45 20.4616L12 21.7616ZM12 19.0616C13.6 17.6283 14.9167 16.3993 15.95 15.3746C16.9833 14.35 17.8 13.4583 18.4 12.6996C19 11.941 19.4167 11.2656 19.65 10.6736C19.8833 10.0816 20 9.49429 20 8.91162C20 7.91162 19.6667 7.07829 19 6.41162C18.3333 5.74495 17.5 5.41162 16.5 5.41162C15.7167 5.41162 14.9917 5.63229 14.325 6.07362C13.6583 6.51495 13.2 7.07762 12.95 7.76162H11.05C10.8 7.07829 10.3417 6.51595 9.675 6.07462C9.00833 5.63329 8.28333 5.41229 7.5 5.41162C6.5 5.41162 5.66667 5.74495 5 6.41162C4.33333 7.07829 4 7.91162 4 8.91162C4 9.49495 4.11667 10.0826 4.35 10.6746C4.58333 11.2666 5 11.9416 5.6 12.6996C6.2 13.4576 7.01667 14.3493 8.05 15.3746C9.08333 16.4 10.4 17.629 12 19.0616Z" fill="#98A2B3"/>
</g>
</svg>
