<svg width="24" height="25" viewBox="0 0 24 25" fill="none" xmlns="http://www.w3.org/2000/svg">
<g id="material-symbols:star-rounded">
<path id="Vector" d="M12 18.1082L7.84996 20.6082C7.66663 20.7249 7.47496 20.7749 7.27496 20.7582C7.07496 20.7415 6.89996 20.6749 6.74996 20.5582C6.59996 20.4415 6.4833 20.2959 6.39996 20.1212C6.31663 19.9465 6.29996 19.7505 6.34996 19.5332L7.44996 14.8082L3.77496 11.6332C3.6083 11.4832 3.5043 11.3122 3.46296 11.1202C3.42163 10.9282 3.43396 10.7409 3.49996 10.5582C3.56596 10.3755 3.66596 10.2255 3.79996 10.1082C3.93396 9.99087 4.1173 9.91587 4.34996 9.8832L9.19996 9.4582L11.075 5.0082C11.1583 4.8082 11.2876 4.6582 11.463 4.5582C11.6383 4.4582 11.8173 4.4082 12 4.4082C12.1826 4.4082 12.3616 4.4582 12.537 4.5582C12.7123 4.6582 12.8416 4.8082 12.925 5.0082L14.8 9.4582L19.65 9.8832C19.8833 9.91654 20.0666 9.99154 20.2 10.1082C20.3333 10.2249 20.4333 10.3749 20.5 10.5582C20.5666 10.7415 20.5793 10.9292 20.538 11.1212C20.4966 11.3132 20.3923 11.4839 20.225 11.6332L16.55 14.8082L17.65 19.5332C17.7 19.7499 17.6833 19.9459 17.6 20.1212C17.5166 20.2965 17.4 20.4422 17.25 20.5582C17.1 20.6742 16.925 20.7409 16.725 20.7582C16.525 20.7755 16.3333 20.7255 16.15 20.6082L12 18.1082Z" fill="#FFCF00"/>
</g>
</svg>
