<svg width="204" height="48" viewBox="0 0 204 48" fill="none" xmlns="http://www.w3.org/2000/svg">
<g id="Group">
<path id="Vector" d="M14.9517 33.6581C12.1366 33.6581 9.62927 32.9423 7.42967 31.5107C5.23008 30.0791 3.50551 28.1389 2.25804 25.6877C1.0085 23.2365 0.384766 20.4631 0.384766 17.3651C0.384766 14.2672 1.00024 11.3649 2.23119 8.89529C3.46213 6.42568 5.15159 4.49465 7.29749 3.10219C9.44338 1.70973 11.9073 1.01465 14.6873 1.01465C16.763 1.01465 18.6631 1.45655 20.3877 2.33806C22.1122 3.21957 23.6592 4.54298 25.0326 6.3083C25.5242 6.93664 25.6997 7.58338 25.5593 8.24854C25.4189 8.916 25.0326 9.50291 24.3986 10.0139C23.905 10.4051 23.3597 10.534 22.7628 10.3959C22.1639 10.2601 21.6186 9.91719 21.1271 9.36712C19.4025 7.32791 17.2566 6.3083 14.6873 6.3083C12.8925 6.3083 11.3084 6.76862 9.937 7.69156C8.56561 8.61219 7.49163 9.89648 6.71712 11.5444C5.94262 13.1901 5.5564 15.1326 5.5564 17.3674C5.5564 19.4849 5.95295 21.3676 6.74397 23.0132C7.535 24.6589 8.63583 25.9639 10.0423 26.9236C11.4488 27.8857 13.0846 28.3644 14.9517 28.3644C16.1826 28.3644 17.2649 28.1987 18.1984 27.865C19.1299 27.5336 19.9849 27.0134 20.7594 26.3068C21.3212 25.7982 21.9016 25.5128 22.5005 25.4529C23.0974 25.3931 23.6261 25.5818 24.0846 26.0122C24.6836 26.5623 25.0161 27.1791 25.0884 27.865C25.1586 28.5509 24.948 29.17 24.4543 29.7178C21.9202 32.3462 18.754 33.6581 14.9537 33.6581H14.9517Z" fill="white"/>
<path id="Vector_2" d="M43.5589 33.6581C40.9896 33.6581 38.6846 32.9423 36.6441 31.5107C34.6035 30.0791 32.9925 28.1389 31.8153 25.6877C30.636 23.2365 30.0474 20.4631 30.0474 17.3651C30.0474 14.2672 30.6897 11.4823 31.9743 9.01265C33.259 6.54305 35.0001 4.5913 37.1997 3.15971C39.3972 1.72812 41.8715 1.01233 44.6163 1.01233C47.3612 1.01233 49.8231 1.72812 52.0061 3.15971C54.1872 4.5913 55.92 6.54074 57.2046 9.01265C58.4893 11.4823 59.1316 14.2672 59.1316 17.3651H57.0724C57.0724 20.4631 56.4838 23.2365 55.3045 25.6877C54.1252 28.1389 52.5163 30.0791 50.4757 31.5107C48.4352 32.9423 46.1302 33.6581 43.5609 33.6581H43.5589ZM44.6143 28.3644C46.4091 28.3644 48.0097 27.8857 49.4183 26.9236C50.8248 25.9639 51.9339 24.6496 52.7435 22.9833C53.5531 21.3169 53.9579 19.4458 53.9579 17.3674C53.9579 15.2891 53.5531 13.358 52.7435 11.6917C51.9339 10.0253 50.8248 8.71114 49.4183 7.75138C48.0097 6.79162 46.4091 6.31059 44.6143 6.31059C42.8195 6.31059 41.2622 6.79162 39.8371 7.75138C38.412 8.71344 37.2864 10.0253 36.4582 11.6917C35.6321 13.358 35.219 15.25 35.219 17.3674C35.219 19.4849 35.6321 21.3192 36.4582 22.9833C37.2844 24.6496 38.412 25.9639 39.8371 26.9236C41.2622 27.8857 42.8546 28.3644 44.6143 28.3644ZM56.4363 33.4808C55.6618 33.4808 55.0195 33.1977 54.5093 32.6293C53.9992 32.0608 53.7431 31.345 53.7431 30.4819V21.4827L54.7469 15.2477L59.1275 17.3651V30.4819C59.1275 31.345 58.8714 32.0608 58.3633 32.6293C57.8531 33.1977 57.2108 33.4808 56.4363 33.4808Z" fill="white"/>
<path id="Vector_3" d="M67.7855 33.4831C67.011 33.4831 66.3687 33.2 65.8585 32.6315C65.3484 32.063 65.0923 31.3472 65.0923 30.4841V4.30816C65.0923 3.40594 65.3463 2.68094 65.8585 2.13316C66.3687 1.58538 67.011 1.30919 67.7855 1.30919C68.56 1.30919 69.2457 1.58538 69.7393 2.13316C70.2309 2.68324 70.4787 3.40824 70.4787 4.30816V30.4841C70.4787 31.3472 70.2329 32.063 69.7393 32.6315C69.2457 33.2 68.5951 33.4831 67.7855 33.4831ZM85.4153 33.4831C84.6408 33.4831 83.9985 33.2 83.4883 32.6315C82.9782 32.063 82.7242 31.3472 82.7242 30.4841V13.6618C82.7242 11.1922 82.1789 9.36015 81.0884 8.16332C79.9979 6.9665 78.5728 6.37038 76.8131 6.37038C75.0535 6.37038 73.4693 7.07697 72.2735 8.48785C71.0777 9.89872 70.4787 11.7032 70.4787 13.8989H67.1535C67.1535 11.351 67.6099 9.10467 68.527 7.16443C69.4419 5.22419 70.708 3.70514 72.3272 2.60499C73.9464 1.50713 75.7929 0.959351 77.8685 0.959351C79.9442 0.959351 81.6502 1.44959 83.1992 2.43007C84.7461 3.41054 85.9523 4.85134 86.8156 6.75245C87.6769 8.65356 88.1085 10.9575 88.1085 13.6641V30.4864C88.1085 31.3495 87.8628 32.0653 87.3691 32.6338C86.8755 33.2023 86.2249 33.4854 85.4153 33.4854V33.4831ZM102.991 33.4831C102.217 33.4831 101.575 33.2 101.064 32.6315C100.554 32.063 100.298 31.3472 100.298 30.4841V13.6618C100.298 11.1922 99.753 9.36015 98.6625 8.16332C97.572 6.9665 96.1469 6.37038 94.3872 6.37038C92.6275 6.37038 91.0537 7.07697 89.8744 8.48785C88.6951 9.89872 88.1065 11.7032 88.1065 13.8989H83.7259C83.7259 11.351 84.2174 9.10467 85.2046 7.16443C86.1898 5.22419 87.5715 3.70514 89.3477 2.60499C91.1239 1.50713 93.1562 0.959351 95.4446 0.959351C97.4501 0.959351 99.2263 1.44959 100.775 2.43007C102.324 3.41054 103.528 4.85134 104.392 6.75245C105.253 8.65356 105.685 10.9575 105.685 13.6641V30.4864C105.685 31.3495 105.439 32.0653 104.945 32.6338C104.452 33.2023 103.801 33.4854 102.991 33.4854V33.4831Z" fill="white"/>
<path id="Vector_4" d="M115.237 47.1867C114.462 47.1867 113.82 46.9013 113.31 46.3351C112.8 45.7666 112.543 45.0508 112.543 44.1877V17.3673C112.579 14.2694 113.229 11.4845 114.497 9.01485C115.763 6.54524 117.488 4.5935 119.669 3.16191C121.85 1.73032 124.314 1.01453 127.059 1.01453C129.804 1.01453 132.319 1.73032 134.5 3.16191C136.681 4.5935 138.414 6.54294 139.699 9.01485C140.983 11.4845 141.626 14.2694 141.626 17.3673C141.626 20.4653 141.035 23.2387 139.858 25.6899C138.678 28.1411 137.069 30.0813 135.029 31.5129C132.988 32.9445 130.683 33.6603 128.114 33.6603C126.036 33.6603 124.13 33.1815 122.387 32.2195C120.646 31.2597 119.159 29.9547 117.928 28.3091V44.19C117.928 45.0531 117.682 45.7689 117.188 46.3374C116.695 46.9059 116.044 47.189 115.235 47.189L115.237 47.1867ZM127.061 28.3643C128.856 28.3643 130.456 27.8856 131.865 26.9235C133.271 25.9637 134.389 24.6495 135.217 22.9832C136.043 21.3168 136.458 19.4456 136.458 17.3673C136.458 15.289 136.045 13.3579 135.217 11.6916C134.391 10.0252 133.273 8.71104 131.865 7.75128C130.458 6.79151 128.856 6.31048 127.061 6.31048C125.266 6.31048 123.709 6.79151 122.284 7.75128C120.859 8.71334 119.741 10.0252 118.932 11.6916C118.122 13.3579 117.717 15.2499 117.717 17.3673C117.717 19.4848 118.122 21.3191 118.932 22.9832C119.741 24.6495 120.859 25.9637 122.284 26.9235C123.709 27.8856 125.301 28.3643 127.061 28.3643Z" fill="white"/>
<path id="Vector_5" d="M159.731 33.7178C157.304 33.7178 155.129 33.1401 153.212 31.9824C151.294 30.827 149.782 29.1308 148.673 26.8959C147.564 24.6611 147.01 21.9153 147.01 18.6608V4.19074C147.01 3.32995 147.264 2.61185 147.774 2.04336C148.285 1.47487 148.927 1.19177 149.701 1.19177C150.476 1.19177 151.116 1.47717 151.628 2.04336C152.139 2.61185 152.395 3.32765 152.395 4.19074V18.6608C152.395 20.8566 152.764 22.6702 153.504 24.1018C154.243 25.5334 155.245 26.5921 156.513 27.278C157.779 27.9639 159.204 28.3068 160.788 28.3068C162.372 28.3068 163.647 27.9731 164.826 27.3079C166.005 26.6404 166.945 25.7405 167.649 24.6012C168.352 23.4642 168.705 22.1892 168.705 20.7783H172.03C172.03 23.2111 171.493 25.4068 170.421 27.3677C169.347 29.3287 167.889 30.8777 166.04 32.0146C164.192 33.1516 162.089 33.7201 159.733 33.7201L159.731 33.7178ZM171.396 33.4232C170.621 33.4232 169.979 33.1378 169.469 32.5716C168.959 32.0031 168.705 31.2873 168.705 30.4242V4.19074C168.705 3.28852 168.959 2.56352 169.469 2.01574C169.979 1.46796 170.621 1.19177 171.396 1.19177C172.17 1.19177 172.856 1.46796 173.348 2.01574C173.841 2.56582 174.087 3.29082 174.087 4.19074V30.4242C174.087 31.2873 173.841 32.0031 173.348 32.5716C172.854 33.1401 172.203 33.4232 171.396 33.4232Z" fill="white"/>
<path id="Vector_6" d="M192.033 33.6581C189.569 33.6581 187.291 33.2369 185.199 32.3945C183.104 31.5521 181.477 30.4842 180.316 29.1884C179.789 28.5623 179.568 27.8465 179.657 27.041C179.744 26.2377 180.087 25.5818 180.686 25.0708C181.39 24.4448 182.084 24.1801 182.77 24.2768C183.455 24.3758 184.044 24.7187 184.538 25.3056C185.135 26.0513 186.095 26.7464 187.413 27.3931C188.732 28.0399 190.201 28.3644 191.82 28.3644C193.861 28.3644 195.418 27.9916 196.492 27.2458C197.564 26.5024 198.119 25.5404 198.155 24.3642C198.19 23.1881 197.688 22.1685 196.651 21.3054C195.612 20.4446 193.722 19.7381 190.977 19.188C187.423 18.4031 184.845 17.227 183.245 15.6596C181.644 14.0923 180.843 12.1704 180.843 9.89646C180.843 7.89638 181.369 6.23924 182.427 4.92503C183.482 3.61082 184.837 2.63265 186.492 1.9836C188.146 1.33685 189.868 1.01233 191.663 1.01233C193.987 1.01233 196.044 1.42431 197.839 2.24828C199.633 3.07225 201.058 4.20924 202.114 5.65924C202.605 6.28757 202.835 6.94352 202.8 7.6294C202.764 8.31527 202.465 8.89297 201.903 9.36479C201.339 9.79749 200.672 9.93329 199.898 9.77678C199.123 9.62027 198.473 9.26813 197.944 8.71805C197.064 7.7767 196.114 7.12995 195.094 6.77781C194.073 6.42567 192.894 6.24844 191.558 6.24844C190.009 6.24844 188.699 6.54305 187.625 7.12995C186.551 7.71686 186.016 8.58226 186.016 9.71694C186.016 10.4235 186.184 11.0611 186.518 11.6296C186.853 12.1981 187.512 12.709 188.497 13.1578C189.482 13.6089 190.926 14.0508 192.826 14.4812C195.465 15.0681 197.549 15.8138 199.082 16.7161C200.612 17.6183 201.711 18.6678 202.38 19.8623C203.047 21.0592 203.384 22.4401 203.384 24.0098C203.384 25.8142 202.952 27.4415 202.091 28.8915C201.228 30.3415 199.962 31.4992 198.291 32.3623C196.618 33.2254 194.534 33.6558 192.035 33.6558L192.033 33.6581Z" fill="white"/>
</g>
</svg>
